<svg width="62" height="63" viewBox="0 0 62 63" fill="none" xmlns="http://www.w3.org/2000/svg">
<path d="M1.7667 13.4613C-3.65967 6.78272 4.47988 -3.4439 11.7846 1.14764C13.663 2.39988 15.5413 5.11307 15.9587 6.99143C17.6284 14.9223 6.98436 19.7225 1.7667 13.4613Z" fill="#D62828"/>
<path d="M24.7245 13.4613C21.5939 9.70461 22.6375 4.06953 27.4377 1.14764C34.5337 -3.4439 42.6733 6.78272 37.2469 13.4613C33.9076 17.4268 28.0638 17.4268 24.7245 13.4613Z" fill="#D62828"/>
<path d="M47.6822 13.4613C42.2559 6.78272 50.3954 -3.4439 57.7001 1.14764C62.2917 4.06953 63.3352 9.70461 60.2046 13.4613C56.8653 17.4268 51.0215 17.4268 47.6822 13.4613Z" fill="#D62828"/>
<path d="M1.7667 36.6712C-3.65967 29.9926 4.47988 19.7659 11.7846 24.3575C13.663 25.6097 15.5413 28.3229 15.9587 30.2013C17.6284 38.1321 6.98436 42.9324 1.7667 36.6712Z" fill="#D62828"/>
<path d="M24.7245 36.6712C21.5939 32.9144 22.6375 27.2794 27.4377 24.3575C34.5337 19.7659 42.6733 29.9926 37.2469 36.6712C33.9076 40.6366 28.0638 40.6366 24.7245 36.6712Z" fill="#D62828"/>
<path d="M47.6822 36.6712C42.2559 29.9926 50.3954 19.7659 57.7001 24.3575C62.2917 27.2794 63.3352 32.9144 60.2046 36.6712C56.8653 40.6366 51.0215 40.6366 47.6822 36.6712Z" fill="#D62828"/>
<path d="M1.7667 60.0124C-3.65967 53.3337 4.47988 43.1071 11.7846 47.6987C13.663 48.9509 15.5413 51.6641 15.9587 53.5425C17.6284 61.4733 6.98436 66.2736 1.7667 60.0124Z" fill="#D62828"/>
<path d="M24.7245 60.0124C21.5939 56.2556 22.6375 50.6206 27.4377 47.6987C34.5337 43.1071 42.6733 53.3337 37.2469 60.0124C33.9076 63.9778 28.0638 63.9778 24.7245 60.0124Z" fill="#D62828"/>
<path d="M47.6822 60.0124C42.2559 53.3337 50.3954 43.1071 57.7001 47.6987C62.2917 50.6206 63.3352 56.2556 60.2046 60.0124C56.8653 63.9778 51.0215 63.9778 47.6822 60.0124Z" fill="#D62828"/>
</svg>
