<svg width="131" height="133" viewBox="0 0 131 133" fill="none" xmlns="http://www.w3.org/2000/svg">
<path d="M1.7667 13.4613C-3.65967 6.78272 4.47988 -3.4439 11.7846 1.14764C13.663 2.39988 15.5413 5.11307 15.9587 6.99143C17.6284 14.9223 6.98436 19.7225 1.7667 13.4613Z" fill="#D62828"/>
<path d="M24.724 13.4613C21.5934 9.70461 22.637 4.06953 27.4372 1.14764C34.5333 -3.4439 42.6728 6.78272 37.2464 13.4613C33.9071 17.4268 28.0634 17.4268 24.724 13.4613Z" fill="#D62828"/>
<path d="M47.6817 13.4613C42.2554 6.78272 50.3949 -3.4439 57.6997 1.14764C62.2912 4.06953 63.3347 9.70461 60.2041 13.4613C56.8648 17.4268 51.021 17.4268 47.6817 13.4613Z" fill="#D62828"/>
<path d="M1.7667 36.6712C-3.65967 29.9926 4.47988 19.7659 11.7846 24.3575C13.663 25.6097 15.5413 28.3229 15.9587 30.2013C17.6284 38.1321 6.98436 42.9324 1.7667 36.6712Z" fill="#D62828"/>
<path d="M24.724 36.6712C21.5934 32.9144 22.637 27.2794 27.4372 24.3575C34.5333 19.7659 42.6728 29.9926 37.2464 36.6712C33.9071 40.6366 28.0634 40.6366 24.724 36.6712Z" fill="#D62828"/>
<path d="M47.6817 36.6712C42.2554 29.9926 50.3949 19.7659 57.6997 24.3575C62.2912 27.2794 63.3347 32.9144 60.2041 36.6712C56.8648 40.6366 51.021 40.6366 47.6817 36.6712Z" fill="#D62828"/>
<path d="M1.7667 60.0124C-3.65967 53.3337 4.47988 43.1071 11.7846 47.6987C13.663 48.9509 15.5413 51.6641 15.9587 53.5425C17.6284 61.4733 6.98436 66.2736 1.7667 60.0124Z" fill="#D62828"/>
<path d="M24.724 60.0124C21.5934 56.2556 22.637 50.6206 27.4372 47.6987C34.5333 43.1071 42.6728 53.3337 37.2464 60.0124C33.9071 63.9778 28.0634 63.9778 24.724 60.0124Z" fill="#D62828"/>
<path d="M47.6817 60.0124C42.2554 53.3337 50.3949 43.1071 57.6997 47.6987C62.2912 50.6206 63.3347 56.2556 60.2041 60.0124C56.8648 63.9778 51.021 63.9778 47.6817 60.0124Z" fill="#D62828"/>
<path d="M70.7667 13.4613C65.3403 6.78272 73.4799 -3.4439 80.7846 1.14764C82.663 2.39988 84.5413 5.11307 84.9587 6.99143C86.6284 14.9223 75.9844 19.7225 70.7667 13.4613Z" fill="#D62828"/>
<path d="M93.724 13.4613C90.5934 9.70461 91.637 4.06953 96.4372 1.14764C103.533 -3.4439 111.673 6.78272 106.246 13.4613C102.907 17.4268 97.0634 17.4268 93.724 13.4613Z" fill="#D62828"/>
<path d="M116.682 13.4613C111.255 6.78272 119.395 -3.4439 126.7 1.14764C131.291 4.06953 132.335 9.70461 129.204 13.4613C125.865 17.4268 120.021 17.4268 116.682 13.4613Z" fill="#D62828"/>
<path d="M70.7667 36.6712C65.3403 29.9926 73.4799 19.7659 80.7846 24.3575C82.663 25.6097 84.5413 28.3229 84.9587 30.2013C86.6284 38.1321 75.9844 42.9324 70.7667 36.6712Z" fill="#D62828"/>
<path d="M93.724 36.6712C90.5934 32.9144 91.637 27.2794 96.4372 24.3575C103.533 19.7659 111.673 29.9926 106.246 36.6712C102.907 40.6366 97.0634 40.6366 93.724 36.6712Z" fill="#D62828"/>
<path d="M116.682 36.6712C111.255 29.9926 119.395 19.7659 126.7 24.3575C131.291 27.2794 132.335 32.9144 129.204 36.6712C125.865 40.6366 120.021 40.6366 116.682 36.6712Z" fill="#D62828"/>
<path d="M70.7667 60.0124C65.3403 53.3337 73.4799 43.1071 80.7846 47.6987C82.663 48.9509 84.5413 51.6641 84.9587 53.5425C86.6284 61.4733 75.9844 66.2736 70.7667 60.0124Z" fill="#D62828"/>
<path d="M93.724 60.0124C90.5934 56.2556 91.637 50.6206 96.4372 47.6987C103.533 43.1071 111.673 53.3337 106.246 60.0124C102.907 63.9778 97.0634 63.9778 93.724 60.0124Z" fill="#D62828"/>
<path d="M116.682 60.0124C111.255 53.3337 119.395 43.1071 126.7 47.6987C131.291 50.6206 132.335 56.2556 129.204 60.0124C125.865 63.9778 120.021 63.9778 116.682 60.0124Z" fill="#D62828"/>
<path d="M1.7667 83.4613C-3.65967 76.7827 4.47988 66.5561 11.7846 71.1476C13.663 72.3999 15.5413 75.1131 15.9587 76.9914C17.6284 84.9223 6.98436 89.7225 1.7667 83.4613Z" fill="#D62828"/>
<path d="M24.724 83.4613C21.5934 79.7046 22.637 74.0695 27.4372 71.1476C34.5333 66.5561 42.6728 76.7827 37.2464 83.4613C33.9071 87.4268 28.0634 87.4268 24.724 83.4613Z" fill="#D62828"/>
<path d="M47.6817 83.4613C42.2554 76.7827 50.3949 66.5561 57.6997 71.1476C62.2912 74.0695 63.3347 79.7046 60.2041 83.4613C56.8648 87.4268 51.021 87.4268 47.6817 83.4613Z" fill="#D62828"/>
<path d="M1.7667 106.671C-3.65967 99.9926 4.47988 89.7659 11.7846 94.3575C13.663 95.6097 15.5413 98.3229 15.9587 100.201C17.6284 108.132 6.98436 112.932 1.7667 106.671Z" fill="#D62828"/>
<path d="M24.724 106.671C21.5934 102.914 22.637 97.2794 27.4372 94.3575C34.5333 89.7659 42.6728 99.9926 37.2464 106.671C33.9071 110.637 28.0634 110.637 24.724 106.671Z" fill="#D62828"/>
<path d="M47.6817 106.671C42.2554 99.9926 50.3949 89.7659 57.6997 94.3575C62.2912 97.2794 63.3347 102.914 60.2041 106.671C56.8648 110.637 51.021 110.637 47.6817 106.671Z" fill="#D62828"/>
<path d="M1.7667 130.012C-3.65967 123.334 4.47988 113.107 11.7846 117.699C13.663 118.951 15.5413 121.664 15.9587 123.542C17.6284 131.473 6.98436 136.274 1.7667 130.012Z" fill="#D62828"/>
<path d="M24.724 130.012C21.5934 126.256 22.637 120.621 27.4372 117.699C34.5333 113.107 42.6728 123.334 37.2464 130.012C33.9071 133.978 28.0634 133.978 24.724 130.012Z" fill="#D62828"/>
<path d="M47.6817 130.012C42.2554 123.334 50.3949 113.107 57.6997 117.699C62.2912 120.621 63.3347 126.256 60.2041 130.012C56.8648 133.978 51.021 133.978 47.6817 130.012Z" fill="#D62828"/>
<path d="M70.7667 83.4613C65.3403 76.7827 73.4799 66.5561 80.7846 71.1476C82.663 72.3999 84.5413 75.1131 84.9587 76.9914C86.6284 84.9223 75.9844 89.7225 70.7667 83.4613Z" fill="#D62828"/>
<path d="M93.724 83.4613C90.5934 79.7046 91.637 74.0695 96.4372 71.1476C103.533 66.5561 111.673 76.7827 106.246 83.4613C102.907 87.4268 97.0634 87.4268 93.724 83.4613Z" fill="#D62828"/>
<path d="M116.682 83.4613C111.255 76.7827 119.395 66.5561 126.7 71.1476C131.291 74.0695 132.335 79.7046 129.204 83.4613C125.865 87.4268 120.021 87.4268 116.682 83.4613Z" fill="#D62828"/>
<path d="M70.7667 106.671C65.3403 99.9926 73.4799 89.7659 80.7846 94.3575C82.663 95.6097 84.5413 98.3229 84.9587 100.201C86.6284 108.132 75.9844 112.932 70.7667 106.671Z" fill="#D62828"/>
<path d="M93.724 106.671C90.5934 102.914 91.637 97.2794 96.4372 94.3575C103.533 89.7659 111.673 99.9926 106.246 106.671C102.907 110.637 97.0634 110.637 93.724 106.671Z" fill="#D62828"/>
<path d="M116.682 106.671C111.255 99.9926 119.395 89.7659 126.7 94.3575C131.291 97.2794 132.335 102.914 129.204 106.671C125.865 110.637 120.021 110.637 116.682 106.671Z" fill="#D62828"/>
<path d="M70.7667 130.012C65.3403 123.334 73.4799 113.107 80.7846 117.699C82.663 118.951 84.5413 121.664 84.9587 123.542C86.6284 131.473 75.9844 136.274 70.7667 130.012Z" fill="#D62828"/>
<path d="M93.724 130.012C90.5934 126.256 91.637 120.621 96.4372 117.699C103.533 113.107 111.673 123.334 106.246 130.012C102.907 133.978 97.0634 133.978 93.724 130.012Z" fill="#D62828"/>
<path d="M116.682 130.012C111.255 123.334 119.395 113.107 126.7 117.699C131.291 120.621 132.335 126.256 129.204 130.012C125.865 133.978 120.021 133.978 116.682 130.012Z" fill="#D62828"/>
</svg>
