<svg width="399" height="183" viewBox="0 0 399 183" fill="none" xmlns="http://www.w3.org/2000/svg">
<path d="M194.119 182.7H132.131C128.238 182.7 124.503 181.153 121.75 178.4C118.997 175.647 117.45 171.912 117.45 168.019V26.1H78.3V89.7188C78.3 93.6125 76.7532 97.3467 74 100.1C71.2467 102.853 67.5125 104.4 63.6188 104.4H6.525C4.79446 104.4 3.1348 103.713 1.91113 102.489C0.687454 101.265 0 99.6055 0 97.875V84.825C0 83.0945 0.687454 81.4348 1.91113 80.2111C3.1348 78.9875 4.79446 78.3 6.525 78.3H52.2V14.6813C52.2 10.7875 53.7468 7.05331 56.5 4.30004C59.2533 1.54677 62.9875 0 66.8812 0H128.869C132.762 0 136.497 1.54677 139.25 4.30004C142.003 7.05331 143.55 10.7875 143.55 14.6813V156.6H182.7V92.9813C182.7 89.0875 184.247 85.3533 187 82.6C189.753 79.8468 193.488 78.3 197.381 78.3H254.475C256.206 78.3 259 78 261 79C261 81 261 83.0945 261 84.825V97.875C261 99.6055 261 101.5 261 104C260 104.5 256.206 104.4 254.475 104.4H208.8V168.019C208.8 171.912 207.253 175.647 204.5 178.4C201.747 181.153 198.012 182.7 194.119 182.7Z" fill="#D62828" fill-opacity="0.3"/>
<path d="M261 79H399V104H261V79Z" fill="#D62828" fill-opacity="0.3"/>
</svg>


