<svg width="55" height="55" viewBox="0 0 55 55" fill="none" xmlns="http://www.w3.org/2000/svg">
<path d="M0.370436 2.77833C-0.767351 1.39991 0.93933 -0.7108 2.47097 0.236866C2.86482 0.49532 3.25867 1.0553 3.34619 1.44299C3.69628 3.07986 1.46446 4.07061 0.370436 2.77833Z" fill="#D62828"/>
<path d="M5.18453 2.77833C4.52812 2.00297 4.74692 0.839926 5.75342 0.236866C7.2413 -0.7108 8.94798 1.39991 7.81019 2.77833C7.11002 3.59677 5.88471 3.59677 5.18453 2.77833Z" fill="#D62828"/>
<path d="M9.99739 2.77833C8.8596 1.39991 10.5663 -0.7108 12.0979 0.236866C13.0607 0.839926 13.2795 2.00297 12.6231 2.77833C11.9229 3.59677 10.6976 3.59677 9.99739 2.77833Z" fill="#D62828"/>
<path d="M0.370436 7.56871C-0.767351 6.19028 0.93933 4.07957 2.47097 5.02724C2.86482 5.28569 3.25867 5.84568 3.34619 6.23336C3.69628 7.87024 1.46446 8.86098 0.370436 7.56871Z" fill="#D62828"/>
<path d="M5.18453 7.56871C4.52812 6.79334 4.74692 5.6303 5.75342 5.02724C7.2413 4.07957 8.94798 6.19028 7.81019 7.56871C7.11002 8.38715 5.88471 8.38715 5.18453 7.56871Z" fill="#D62828"/>
<path d="M9.99739 7.56871C8.8596 6.19028 10.5663 4.07957 12.0979 5.02724C13.0607 5.6303 13.2795 6.79334 12.6231 7.56871C11.9229 8.38715 10.6976 8.38715 9.99739 7.56871Z" fill="#D62828"/>
<path d="M0.370436 12.3862C-0.767351 11.0078 0.93933 8.89705 2.47097 9.84471C2.86482 10.1032 3.25867 10.6632 3.34619 11.0508C3.69628 12.6877 1.46446 13.6785 0.370436 12.3862Z" fill="#D62828"/>
<path d="M5.18453 12.3862C4.52812 11.6108 4.74692 10.4478 5.75342 9.84471C7.2413 8.89705 8.94798 11.0078 7.81019 12.3862C7.11002 13.2046 5.88471 13.2046 5.18453 12.3862Z" fill="#D62828"/>
<path d="M9.99739 12.3862C8.8596 11.0078 10.5663 8.89705 12.0979 9.84471C13.0607 10.4478 13.2795 11.6108 12.6231 12.3862C11.9229 13.2046 10.6976 13.2046 9.99739 12.3862Z" fill="#D62828"/>
<path d="M14.3704 2.77833C13.2326 1.39991 14.9393 -0.7108 16.471 0.236866C16.8648 0.49532 17.2587 1.0553 17.3462 1.44299C17.6963 3.07986 15.4645 4.07061 14.3704 2.77833Z" fill="#D62828"/>
<path d="M19.1845 2.77833C18.5281 2.00297 18.7469 0.839926 19.7534 0.236866C21.2413 -0.7108 22.948 1.39991 21.8102 2.77833C21.11 3.59677 19.8847 3.59677 19.1845 2.77833Z" fill="#D62828"/>
<path d="M23.9974 2.77833C22.8596 1.39991 24.5663 -0.7108 26.0979 0.236866C27.0607 0.839926 27.2795 2.00297 26.6231 2.77833C25.9229 3.59677 24.6976 3.59677 23.9974 2.77833Z" fill="#D62828"/>
<path d="M14.3704 7.56871C13.2326 6.19028 14.9393 4.07957 16.471 5.02724C16.8648 5.28569 17.2587 5.84568 17.3462 6.23336C17.6963 7.87024 15.4645 8.86098 14.3704 7.56871Z" fill="#D62828"/>
<path d="M19.1845 7.56871C18.5281 6.79334 18.7469 5.6303 19.7534 5.02724C21.2413 4.07957 22.948 6.19028 21.8102 7.56871C21.11 8.38715 19.8847 8.38715 19.1845 7.56871Z" fill="#D62828"/>
<path d="M23.9974 7.56871C22.8596 6.19028 24.5663 4.07957 26.0979 5.02724C27.0607 5.6303 27.2795 6.79334 26.6231 7.56871C25.9229 8.38715 24.6976 8.38715 23.9974 7.56871Z" fill="#D62828"/>
<path d="M14.3704 12.3862C13.2326 11.0078 14.9393 8.89705 16.471 9.84471C16.8648 10.1032 17.2587 10.6632 17.3462 11.0508C17.6963 12.6877 15.4645 13.6785 14.3704 12.3862Z" fill="#D62828"/>
<path d="M19.1845 12.3862C18.5281 11.6108 18.7469 10.4478 19.7534 9.84471C21.2413 8.89705 22.948 11.0078 21.8102 12.3862C21.11 13.2046 19.8847 13.2046 19.1845 12.3862Z" fill="#D62828"/>
<path d="M23.9974 12.3862C22.8596 11.0078 24.5663 8.89705 26.0979 9.84471C27.0607 10.4478 27.2795 11.6108 26.6231 12.3862C25.9229 13.2046 24.6976 13.2046 23.9974 12.3862Z" fill="#D62828"/>
<path d="M0.370436 16.7783C-0.767351 15.3999 0.93933 13.2892 2.47097 14.2369C2.86482 14.4953 3.25867 15.0553 3.34619 15.443C3.69628 17.0799 1.46446 18.0706 0.370436 16.7783Z" fill="#D62828"/>
<path d="M5.18453 16.7783C4.52812 16.003 4.74692 14.8399 5.75342 14.2369C7.2413 13.2892 8.94798 15.3999 7.81019 16.7783C7.11002 17.5968 5.88471 17.5968 5.18453 16.7783Z" fill="#D62828"/>
<path d="M9.99739 16.7783C8.8596 15.3999 10.5663 13.2892 12.0979 14.2369C13.0607 14.8399 13.2795 16.003 12.6231 16.7783C11.9229 17.5968 10.6976 17.5968 9.99739 16.7783Z" fill="#D62828"/>
<path d="M0.370436 21.5687C-0.767351 20.1903 0.93933 18.0796 2.47097 19.0272C2.86482 19.2857 3.25867 19.8457 3.34619 20.2334C3.69628 21.8702 1.46446 22.861 0.370436 21.5687Z" fill="#D62828"/>
<path d="M5.18453 21.5687C4.52812 20.7933 4.74692 19.6303 5.75342 19.0272C7.2413 18.0796 8.94798 20.1903 7.81019 21.5687C7.11002 22.3871 5.88471 22.3871 5.18453 21.5687Z" fill="#D62828"/>
<path d="M9.99739 21.5687C8.8596 20.1903 10.5663 18.0796 12.0979 19.0272C13.0607 19.6303 13.2795 20.7933 12.6231 21.5687C11.9229 22.3871 10.6976 22.3871 9.99739 21.5687Z" fill="#D62828"/>
<path d="M0.370436 26.3862C-0.767351 25.0078 0.93933 22.897 2.47097 23.8447C2.86482 24.1032 3.25867 24.6632 3.34619 25.0508C3.69628 26.6877 1.46446 27.6785 0.370436 26.3862Z" fill="#D62828"/>
<path d="M5.18453 26.3862C4.52812 25.6108 4.74692 24.4478 5.75342 23.8447C7.2413 22.897 8.94798 25.0078 7.81019 26.3862C7.11002 27.2046 5.88471 27.2046 5.18453 26.3862Z" fill="#D62828"/>
<path d="M9.99739 26.3862C8.8596 25.0078 10.5663 22.897 12.0979 23.8447C13.0607 24.4478 13.2795 25.6108 12.6231 26.3862C11.9229 27.2046 10.6976 27.2046 9.99739 26.3862Z" fill="#D62828"/>
<path d="M14.3704 16.7783C13.2326 15.3999 14.9393 13.2892 16.471 14.2369C16.8648 14.4953 17.2587 15.0553 17.3462 15.443C17.6963 17.0799 15.4645 18.0706 14.3704 16.7783Z" fill="#D62828"/>
<path d="M19.1845 16.7783C18.5281 16.003 18.7469 14.8399 19.7534 14.2369C21.2413 13.2892 22.948 15.3999 21.8102 16.7783C21.11 17.5968 19.8847 17.5968 19.1845 16.7783Z" fill="#D62828"/>
<path d="M23.9974 16.7783C22.8596 15.3999 24.5663 13.2892 26.0979 14.2369C27.0607 14.8399 27.2795 16.003 26.6231 16.7783C25.9229 17.5968 24.6976 17.5968 23.9974 16.7783Z" fill="#D62828"/>
<path d="M14.3704 21.5687C13.2326 20.1903 14.9393 18.0796 16.471 19.0272C16.8648 19.2857 17.2587 19.8457 17.3462 20.2334C17.6963 21.8702 15.4645 22.861 14.3704 21.5687Z" fill="#D62828"/>
<path d="M19.1845 21.5687C18.5281 20.7933 18.7469 19.6303 19.7534 19.0272C21.2413 18.0796 22.948 20.1903 21.8102 21.5687C21.11 22.3871 19.8847 22.3871 19.1845 21.5687Z" fill="#D62828"/>
<path d="M23.9974 21.5687C22.8596 20.1903 24.5663 18.0796 26.0979 19.0272C27.0607 19.6303 27.2795 20.7933 26.6231 21.5687C25.9229 22.3871 24.6976 22.3871 23.9974 21.5687Z" fill="#D62828"/>
<path d="M14.3704 26.3862C13.2326 25.0078 14.9393 22.897 16.471 23.8447C16.8648 24.1032 17.2587 24.6632 17.3462 25.0508C17.6963 26.6877 15.4645 27.6785 14.3704 26.3862Z" fill="#D62828"/>
<path d="M19.1845 26.3862C18.5281 25.6108 18.7469 24.4478 19.7534 23.8447C21.2413 22.897 22.948 25.0078 21.8102 26.3862C21.11 27.2046 19.8847 27.2046 19.1845 26.3862Z" fill="#D62828"/>
<path d="M23.9974 26.3862C22.8596 25.0078 24.5663 22.897 26.0979 23.8447C27.0607 24.4478 27.2795 25.6108 26.6231 26.3862C25.9229 27.2046 24.6976 27.2046 23.9974 26.3862Z" fill="#D62828"/>
<path d="M0.370436 30.7783C-0.767351 29.3999 0.93933 27.2892 2.47097 28.2369C2.86482 28.4953 3.25867 29.0553 3.34619 29.443C3.69628 31.0799 1.46446 32.0706 0.370436 30.7783Z" fill="#D62828"/>
<path d="M5.18453 30.7783C4.52812 30.003 4.74692 28.8399 5.75342 28.2369C7.2413 27.2892 8.94798 29.3999 7.81019 30.7783C7.11002 31.5968 5.88471 31.5968 5.18453 30.7783Z" fill="#D62828"/>
<path d="M9.99739 30.7783C8.8596 29.3999 10.5663 27.2892 12.0979 28.2369C13.0607 28.8399 13.2795 30.003 12.6231 30.7783C11.9229 31.5968 10.6976 31.5968 9.99739 30.7783Z" fill="#D62828"/>
<path d="M0.370436 35.5687C-0.767351 34.1903 0.93933 32.0796 2.47097 33.0272C2.86482 33.2857 3.25867 33.8457 3.34619 34.2334C3.69628 35.8702 1.46446 36.861 0.370436 35.5687Z" fill="#D62828"/>
<path d="M5.18453 35.5687C4.52812 34.7933 4.74692 33.6303 5.75342 33.0272C7.2413 32.0796 8.94798 34.1903 7.81019 35.5687C7.11002 36.3871 5.88471 36.3871 5.18453 35.5687Z" fill="#D62828"/>
<path d="M9.99739 35.5687C8.8596 34.1903 10.5663 32.0796 12.0979 33.0272C13.0607 33.6303 13.2795 34.7933 12.6231 35.5687C11.9229 36.3871 10.6976 36.3871 9.99739 35.5687Z" fill="#D62828"/>
<path d="M0.370436 40.3862C-0.767351 39.0078 0.93933 36.897 2.47097 37.8447C2.86482 38.1032 3.25867 38.6632 3.34619 39.0508C3.69628 40.6877 1.46446 41.6785 0.370436 40.3862Z" fill="#D62828"/>
<path d="M5.18453 40.3862C4.52812 39.6108 4.74692 38.4478 5.75342 37.8447C7.2413 36.897 8.94798 39.0078 7.81019 40.3862C7.11002 41.2046 5.88471 41.2046 5.18453 40.3862Z" fill="#D62828"/>
<path d="M9.99739 40.3862C8.8596 39.0078 10.5663 36.897 12.0979 37.8447C13.0607 38.4478 13.2795 39.6108 12.6231 40.3862C11.9229 41.2046 10.6976 41.2046 9.99739 40.3862Z" fill="#D62828"/>
<path d="M14.3704 30.7783C13.2326 29.3999 14.9393 27.2892 16.471 28.2369C16.8648 28.4953 17.2587 29.0553 17.3462 29.443C17.6963 31.0799 15.4645 32.0706 14.3704 30.7783Z" fill="#D62828"/>
<path d="M19.1845 30.7783C18.5281 30.003 18.7469 28.8399 19.7534 28.2369C21.2413 27.2892 22.948 29.3999 21.8102 30.7783C21.11 31.5968 19.8847 31.5968 19.1845 30.7783Z" fill="#D62828"/>
<path d="M23.9974 30.7783C22.8596 29.3999 24.5663 27.2892 26.0979 28.2369C27.0607 28.8399 27.2795 30.003 26.6231 30.7783C25.9229 31.5968 24.6976 31.5968 23.9974 30.7783Z" fill="#D62828"/>
<path d="M14.3704 35.5687C13.2326 34.1903 14.9393 32.0796 16.471 33.0272C16.8648 33.2857 17.2587 33.8457 17.3462 34.2334C17.6963 35.8702 15.4645 36.861 14.3704 35.5687Z" fill="#D62828"/>
<path d="M19.1845 35.5687C18.5281 34.7933 18.7469 33.6303 19.7534 33.0272C21.2413 32.0796 22.948 34.1903 21.8102 35.5687C21.11 36.3871 19.8847 36.3871 19.1845 35.5687Z" fill="#D62828"/>
<path d="M23.9974 35.5687C22.8596 34.1903 24.5663 32.0796 26.0979 33.0272C27.0607 33.6303 27.2795 34.7933 26.6231 35.5687C25.9229 36.3871 24.6976 36.3871 23.9974 35.5687Z" fill="#D62828"/>
<path d="M14.3704 40.3862C13.2326 39.0078 14.9393 36.897 16.471 37.8447C16.8648 38.1032 17.2587 38.6632 17.3462 39.0508C17.6963 40.6877 15.4645 41.6785 14.3704 40.3862Z" fill="#D62828"/>
<path d="M19.1845 40.3862C18.5281 39.6108 18.7469 38.4478 19.7534 37.8447C21.2413 36.897 22.948 39.0078 21.8102 40.3862C21.11 41.2046 19.8847 41.2046 19.1845 40.3862Z" fill="#D62828"/>
<path d="M23.9974 40.3862C22.8596 39.0078 24.5663 36.897 26.0979 37.8447C27.0607 38.4478 27.2795 39.6108 26.6231 40.3862C25.9229 41.2046 24.6976 41.2046 23.9974 40.3862Z" fill="#D62828"/>
<path d="M0.370436 44.7783C-0.767351 43.3999 0.93933 41.2892 2.47097 42.2369C2.86482 42.4953 3.25867 43.0553 3.34619 43.443C3.69628 45.0799 1.46446 46.0706 0.370436 44.7783Z" fill="#D62828"/>
<path d="M5.18453 44.7783C4.52812 44.003 4.74692 42.8399 5.75342 42.2369C7.2413 41.2892 8.94798 43.3999 7.81019 44.7783C7.11002 45.5968 5.88471 45.5968 5.18453 44.7783Z" fill="#D62828"/>
<path d="M9.99739 44.7783C8.8596 43.3999 10.5663 41.2892 12.0979 42.2369C13.0607 42.8399 13.2795 44.003 12.6231 44.7783C11.9229 45.5968 10.6976 45.5968 9.99739 44.7783Z" fill="#D62828"/>
<path d="M0.370436 49.5687C-0.767351 48.1903 0.93933 46.0796 2.47097 47.0272C2.86482 47.2857 3.25867 47.8457 3.34619 48.2334C3.69628 49.8702 1.46446 50.861 0.370436 49.5687Z" fill="#D62828"/>
<path d="M5.18453 49.5687C4.52812 48.7933 4.74692 47.6303 5.75342 47.0272C7.2413 46.0796 8.94798 48.1903 7.81019 49.5687C7.11002 50.3871 5.88471 50.3871 5.18453 49.5687Z" fill="#D62828"/>
<path d="M9.99739 49.5687C8.8596 48.1903 10.5663 46.0796 12.0979 47.0272C13.0607 47.6303 13.2795 48.7933 12.6231 49.5687C11.9229 50.3871 10.6976 50.3871 9.99739 49.5687Z" fill="#D62828"/>
<path d="M0.370436 54.3862C-0.767351 53.0078 0.93933 50.897 2.47097 51.8447C2.86482 52.1032 3.25867 52.6632 3.34619 53.0508C3.69628 54.6877 1.46446 55.6785 0.370436 54.3862Z" fill="#D62828"/>
<path d="M5.18453 54.3862C4.52812 53.6108 4.74692 52.4478 5.75342 51.8447C7.2413 50.897 8.94798 53.0078 7.81019 54.3862C7.11002 55.2046 5.88471 55.2046 5.18453 54.3862Z" fill="#D62828"/>
<path d="M9.99739 54.3862C8.8596 53.0078 10.5663 50.897 12.0979 51.8447C13.0607 52.4478 13.2795 53.6108 12.6231 54.3862C11.9229 55.2046 10.6976 55.2046 9.99739 54.3862Z" fill="#D62828"/>
<path d="M14.3704 44.7783C13.2326 43.3999 14.9393 41.2892 16.471 42.2369C16.8648 42.4953 17.2587 43.0553 17.3462 43.443C17.6963 45.0799 15.4645 46.0706 14.3704 44.7783Z" fill="#D62828"/>
<path d="M19.1845 44.7783C18.5281 44.003 18.7469 42.8399 19.7534 42.2369C21.2413 41.2892 22.948 43.3999 21.8102 44.7783C21.11 45.5968 19.8847 45.5968 19.1845 44.7783Z" fill="#D62828"/>
<path d="M23.9974 44.7783C22.8596 43.3999 24.5663 41.2892 26.0979 42.2369C27.0607 42.8399 27.2795 44.003 26.6231 44.7783C25.9229 45.5968 24.6976 45.5968 23.9974 44.7783Z" fill="#D62828"/>
<path d="M14.3704 49.5687C13.2326 48.1903 14.9393 46.0796 16.471 47.0272C16.8648 47.2857 17.2587 47.8457 17.3462 48.2334C17.6963 49.8702 15.4645 50.861 14.3704 49.5687Z" fill="#D62828"/>
<path d="M19.1845 49.5687C18.5281 48.7933 18.7469 47.6303 19.7534 47.0272C21.2413 46.0796 22.948 48.1903 21.8102 49.5687C21.11 50.3871 19.8847 50.3871 19.1845 49.5687Z" fill="#D62828"/>
<path d="M23.9974 49.5687C22.8596 48.1903 24.5663 46.0796 26.0979 47.0272C27.0607 47.6303 27.2795 48.7933 26.6231 49.5687C25.9229 50.3871 24.6976 50.3871 23.9974 49.5687Z" fill="#D62828"/>
<path d="M14.3704 54.3862C13.2326 53.0078 14.9393 50.897 16.471 51.8447C16.8648 52.1032 17.2587 52.6632 17.3462 53.0508C17.6963 54.6877 15.4645 55.6785 14.3704 54.3862Z" fill="#D62828"/>
<path d="M19.1845 54.3862C18.5281 53.6108 18.7469 52.4478 19.7534 51.8447C21.2413 50.897 22.948 53.0078 21.8102 54.3862C21.11 55.2046 19.8847 55.2046 19.1845 54.3862Z" fill="#D62828"/>
<path d="M23.9974 54.3862C22.8596 53.0078 24.5663 50.897 26.0979 51.8447C27.0607 52.4478 27.2795 53.6108 26.6231 54.3862C25.9229 55.2046 24.6976 55.2046 23.9974 54.3862Z" fill="#D62828"/>
<path d="M28.3704 2.77833C27.2326 1.39991 28.9393 -0.7108 30.471 0.236866C30.8648 0.49532 31.2587 1.0553 31.3462 1.44299C31.6963 3.07986 29.4645 4.07061 28.3704 2.77833Z" fill="#D62828"/>
<path d="M33.1845 2.77833C32.5281 2.00297 32.7469 0.839926 33.7534 0.236866C35.2413 -0.7108 36.948 1.39991 35.8102 2.77833C35.11 3.59677 33.8847 3.59677 33.1845 2.77833Z" fill="#D62828"/>
<path d="M37.9974 2.77833C36.8596 1.39991 38.5663 -0.7108 40.0979 0.236866C41.0607 0.839926 41.2795 2.00297 40.6231 2.77833C39.9229 3.59677 38.6976 3.59677 37.9974 2.77833Z" fill="#D62828"/>
<path d="M28.3704 7.56871C27.2326 6.19028 28.9393 4.07957 30.471 5.02724C30.8648 5.28569 31.2587 5.84568 31.3462 6.23336C31.6963 7.87024 29.4645 8.86098 28.3704 7.56871Z" fill="#D62828"/>
<path d="M33.1845 7.56871C32.5281 6.79334 32.7469 5.6303 33.7534 5.02724C35.2413 4.07957 36.948 6.19028 35.8102 7.56871C35.11 8.38715 33.8847 8.38715 33.1845 7.56871Z" fill="#D62828"/>
<path d="M37.9974 7.56871C36.8596 6.19028 38.5663 4.07957 40.0979 5.02724C41.0607 5.6303 41.2795 6.79334 40.6231 7.56871C39.9229 8.38715 38.6976 8.38715 37.9974 7.56871Z" fill="#D62828"/>
<path d="M28.3704 12.3862C27.2326 11.0078 28.9393 8.89705 30.471 9.84471C30.8648 10.1032 31.2587 10.6632 31.3462 11.0508C31.6963 12.6877 29.4645 13.6785 28.3704 12.3862Z" fill="#D62828"/>
<path d="M33.1845 12.3862C32.5281 11.6108 32.7469 10.4478 33.7534 9.84471C35.2413 8.89705 36.948 11.0078 35.8102 12.3862C35.11 13.2046 33.8847 13.2046 33.1845 12.3862Z" fill="#D62828"/>
<path d="M37.9974 12.3862C36.8596 11.0078 38.5663 8.89705 40.0979 9.84471C41.0607 10.4478 41.2795 11.6108 40.6231 12.3862C39.9229 13.2046 38.6976 13.2046 37.9974 12.3862Z" fill="#D62828"/>
<path d="M42.3704 2.77833C41.2326 1.39991 42.9393 -0.7108 44.471 0.236866C44.8648 0.49532 45.2587 1.0553 45.3462 1.44299C45.6963 3.07986 43.4645 4.07061 42.3704 2.77833Z" fill="#D62828"/>
<path d="M47.1845 2.77833C46.5281 2.00297 46.7469 0.839926 47.7534 0.236866C49.2413 -0.7108 50.948 1.39991 49.8102 2.77833C49.11 3.59677 47.8847 3.59677 47.1845 2.77833Z" fill="#D62828"/>
<path d="M51.9974 2.77833C50.8596 1.39991 52.5663 -0.7108 54.0979 0.236866C55.0607 0.839926 55.2795 2.00297 54.6231 2.77833C53.9229 3.59677 52.6976 3.59677 51.9974 2.77833Z" fill="#D62828"/>
<path d="M42.3704 7.56871C41.2326 6.19028 42.9393 4.07957 44.471 5.02724C44.8648 5.28569 45.2587 5.84568 45.3462 6.23336C45.6963 7.87024 43.4645 8.86098 42.3704 7.56871Z" fill="#D62828"/>
<path d="M47.1845 7.56871C46.5281 6.79334 46.7469 5.6303 47.7534 5.02724C49.2413 4.07957 50.948 6.19028 49.8102 7.56871C49.11 8.38715 47.8847 8.38715 47.1845 7.56871Z" fill="#D62828"/>
<path d="M51.9974 7.56871C50.8596 6.19028 52.5663 4.07957 54.0979 5.02724C55.0607 5.6303 55.2795 6.79334 54.6231 7.56871C53.9229 8.38715 52.6976 8.38715 51.9974 7.56871Z" fill="#D62828"/>
<path d="M42.3704 12.3862C41.2326 11.0078 42.9393 8.89705 44.471 9.84471C44.8648 10.1032 45.2587 10.6632 45.3462 11.0508C45.6963 12.6877 43.4645 13.6785 42.3704 12.3862Z" fill="#D62828"/>
<path d="M47.1845 12.3862C46.5281 11.6108 46.7469 10.4478 47.7534 9.84471C49.2413 8.89705 50.948 11.0078 49.8102 12.3862C49.11 13.2046 47.8847 13.2046 47.1845 12.3862Z" fill="#D62828"/>
<path d="M51.9974 12.3862C50.8596 11.0078 52.5663 8.89705 54.0979 9.84471C55.0607 10.4478 55.2795 11.6108 54.6231 12.3862C53.9229 13.2046 52.6976 13.2046 51.9974 12.3862Z" fill="#D62828"/>
<path d="M28.3704 16.7783C27.2326 15.3999 28.9393 13.2892 30.471 14.2369C30.8648 14.4953 31.2587 15.0553 31.3462 15.443C31.6963 17.0799 29.4645 18.0706 28.3704 16.7783Z" fill="#D62828"/>
<path d="M33.1845 16.7783C32.5281 16.003 32.7469 14.8399 33.7534 14.2369C35.2413 13.2892 36.948 15.3999 35.8102 16.7783C35.11 17.5968 33.8847 17.5968 33.1845 16.7783Z" fill="#D62828"/>
<path d="M37.9974 16.7783C36.8596 15.3999 38.5663 13.2892 40.0979 14.2369C41.0607 14.8399 41.2795 16.003 40.6231 16.7783C39.9229 17.5968 38.6976 17.5968 37.9974 16.7783Z" fill="#D62828"/>
<path d="M28.3704 21.5687C27.2326 20.1903 28.9393 18.0796 30.471 19.0272C30.8648 19.2857 31.2587 19.8457 31.3462 20.2334C31.6963 21.8702 29.4645 22.861 28.3704 21.5687Z" fill="#D62828"/>
<path d="M33.1845 21.5687C32.5281 20.7933 32.7469 19.6303 33.7534 19.0272C35.2413 18.0796 36.948 20.1903 35.8102 21.5687C35.11 22.3871 33.8847 22.3871 33.1845 21.5687Z" fill="#D62828"/>
<path d="M37.9974 21.5687C36.8596 20.1903 38.5663 18.0796 40.0979 19.0272C41.0607 19.6303 41.2795 20.7933 40.6231 21.5687C39.9229 22.3871 38.6976 22.3871 37.9974 21.5687Z" fill="#D62828"/>
<path d="M28.3704 26.3862C27.2326 25.0078 28.9393 22.897 30.471 23.8447C30.8648 24.1032 31.2587 24.6632 31.3462 25.0508C31.6963 26.6877 29.4645 27.6785 28.3704 26.3862Z" fill="#D62828"/>
<path d="M33.1845 26.3862C32.5281 25.6108 32.7469 24.4478 33.7534 23.8447C35.2413 22.897 36.948 25.0078 35.8102 26.3862C35.11 27.2046 33.8847 27.2046 33.1845 26.3862Z" fill="#D62828"/>
<path d="M37.9974 26.3862C36.8596 25.0078 38.5663 22.897 40.0979 23.8447C41.0607 24.4478 41.2795 25.6108 40.6231 26.3862C39.9229 27.2046 38.6976 27.2046 37.9974 26.3862Z" fill="#D62828"/>
<path d="M42.3704 16.7783C41.2326 15.3999 42.9393 13.2892 44.471 14.2369C44.8648 14.4953 45.2587 15.0553 45.3462 15.443C45.6963 17.0799 43.4645 18.0706 42.3704 16.7783Z" fill="#D62828"/>
<path d="M47.1845 16.7783C46.5281 16.003 46.7469 14.8399 47.7534 14.2369C49.2413 13.2892 50.948 15.3999 49.8102 16.7783C49.11 17.5968 47.8847 17.5968 47.1845 16.7783Z" fill="#D62828"/>
<path d="M51.9974 16.7783C50.8596 15.3999 52.5663 13.2892 54.0979 14.2369C55.0607 14.8399 55.2795 16.003 54.6231 16.7783C53.9229 17.5968 52.6976 17.5968 51.9974 16.7783Z" fill="#D62828"/>
<path d="M42.3704 21.5687C41.2326 20.1903 42.9393 18.0796 44.471 19.0272C44.8648 19.2857 45.2587 19.8457 45.3462 20.2334C45.6963 21.8702 43.4645 22.861 42.3704 21.5687Z" fill="#D62828"/>
<path d="M47.1845 21.5687C46.5281 20.7933 46.7469 19.6303 47.7534 19.0272C49.2413 18.0796 50.948 20.1903 49.8102 21.5687C49.11 22.3871 47.8847 22.3871 47.1845 21.5687Z" fill="#D62828"/>
<path d="M51.9974 21.5687C50.8596 20.1903 52.5663 18.0796 54.0979 19.0272C55.0607 19.6303 55.2795 20.7933 54.6231 21.5687C53.9229 22.3871 52.6976 22.3871 51.9974 21.5687Z" fill="#D62828"/>
<path d="M42.3704 26.3862C41.2326 25.0078 42.9393 22.897 44.471 23.8447C44.8648 24.1032 45.2587 24.6632 45.3462 25.0508C45.6963 26.6877 43.4645 27.6785 42.3704 26.3862Z" fill="#D62828"/>
<path d="M47.1845 26.3862C46.5281 25.6108 46.7469 24.4478 47.7534 23.8447C49.2413 22.897 50.948 25.0078 49.8102 26.3862C49.11 27.2046 47.8847 27.2046 47.1845 26.3862Z" fill="#D62828"/>
<path d="M51.9974 26.3862C50.8596 25.0078 52.5663 22.897 54.0979 23.8447C55.0607 24.4478 55.2795 25.6108 54.6231 26.3862C53.9229 27.2046 52.6976 27.2046 51.9974 26.3862Z" fill="#D62828"/>
<path d="M28.3704 30.7783C27.2326 29.3999 28.9393 27.2892 30.471 28.2369C30.8648 28.4953 31.2587 29.0553 31.3462 29.443C31.6963 31.0799 29.4645 32.0706 28.3704 30.7783Z" fill="#D62828"/>
<path d="M33.1845 30.7783C32.5281 30.003 32.7469 28.8399 33.7534 28.2369C35.2413 27.2892 36.948 29.3999 35.8102 30.7783C35.11 31.5968 33.8847 31.5968 33.1845 30.7783Z" fill="#D62828"/>
<path d="M37.9974 30.7783C36.8596 29.3999 38.5663 27.2892 40.0979 28.2369C41.0607 28.8399 41.2795 30.003 40.6231 30.7783C39.9229 31.5968 38.6976 31.5968 37.9974 30.7783Z" fill="#D62828"/>
<path d="M28.3704 35.5687C27.2326 34.1903 28.9393 32.0796 30.471 33.0272C30.8648 33.2857 31.2587 33.8457 31.3462 34.2334C31.6963 35.8702 29.4645 36.861 28.3704 35.5687Z" fill="#D62828"/>
<path d="M33.1845 35.5687C32.5281 34.7933 32.7469 33.6303 33.7534 33.0272C35.2413 32.0796 36.948 34.1903 35.8102 35.5687C35.11 36.3871 33.8847 36.3871 33.1845 35.5687Z" fill="#D62828"/>
<path d="M37.9974 35.5687C36.8596 34.1903 38.5663 32.0796 40.0979 33.0272C41.0607 33.6303 41.2795 34.7933 40.6231 35.5687C39.9229 36.3871 38.6976 36.3871 37.9974 35.5687Z" fill="#D62828"/>
<path d="M28.3704 40.3862C27.2326 39.0078 28.9393 36.897 30.471 37.8447C30.8648 38.1032 31.2587 38.6632 31.3462 39.0508C31.6963 40.6877 29.4645 41.6785 28.3704 40.3862Z" fill="#D62828"/>
<path d="M33.1845 40.3862C32.5281 39.6108 32.7469 38.4478 33.7534 37.8447C35.2413 36.897 36.948 39.0078 35.8102 40.3862C35.11 41.2046 33.8847 41.2046 33.1845 40.3862Z" fill="#D62828"/>
<path d="M37.9974 40.3862C36.8596 39.0078 38.5663 36.897 40.0979 37.8447C41.0607 38.4478 41.2795 39.6108 40.6231 40.3862C39.9229 41.2046 38.6976 41.2046 37.9974 40.3862Z" fill="#D62828"/>
<path d="M42.3704 30.7783C41.2326 29.3999 42.9393 27.2892 44.471 28.2369C44.8648 28.4953 45.2587 29.0553 45.3462 29.443C45.6963 31.0799 43.4645 32.0706 42.3704 30.7783Z" fill="#D62828"/>
<path d="M47.1845 30.7783C46.5281 30.003 46.7469 28.8399 47.7534 28.2369C49.2413 27.2892 50.948 29.3999 49.8102 30.7783C49.11 31.5968 47.8847 31.5968 47.1845 30.7783Z" fill="#D62828"/>
<path d="M51.9974 30.7783C50.8596 29.3999 52.5663 27.2892 54.0979 28.2369C55.0607 28.8399 55.2795 30.003 54.6231 30.7783C53.9229 31.5968 52.6976 31.5968 51.9974 30.7783Z" fill="#D62828"/>
<path d="M42.3704 35.5687C41.2326 34.1903 42.9393 32.0796 44.471 33.0272C44.8648 33.2857 45.2587 33.8457 45.3462 34.2334C45.6963 35.8702 43.4645 36.861 42.3704 35.5687Z" fill="#D62828"/>
<path d="M47.1845 35.5687C46.5281 34.7933 46.7469 33.6303 47.7534 33.0272C49.2413 32.0796 50.948 34.1903 49.8102 35.5687C49.11 36.3871 47.8847 36.3871 47.1845 35.5687Z" fill="#D62828"/>
<path d="M51.9974 35.5687C50.8596 34.1903 52.5663 32.0796 54.0979 33.0272C55.0607 33.6303 55.2795 34.7933 54.6231 35.5687C53.9229 36.3871 52.6976 36.3871 51.9974 35.5687Z" fill="#D62828"/>
<path d="M42.3704 40.3862C41.2326 39.0078 42.9393 36.897 44.471 37.8447C44.8648 38.1032 45.2587 38.6632 45.3462 39.0508C45.6963 40.6877 43.4645 41.6785 42.3704 40.3862Z" fill="#D62828"/>
<path d="M47.1845 40.3862C46.5281 39.6108 46.7469 38.4478 47.7534 37.8447C49.2413 36.897 50.948 39.0078 49.8102 40.3862C49.11 41.2046 47.8847 41.2046 47.1845 40.3862Z" fill="#D62828"/>
<path d="M51.9974 40.3862C50.8596 39.0078 52.5663 36.897 54.0979 37.8447C55.0607 38.4478 55.2795 39.6108 54.6231 40.3862C53.9229 41.2046 52.6976 41.2046 51.9974 40.3862Z" fill="#D62828"/>
<path d="M28.3704 44.7783C27.2326 43.3999 28.9393 41.2892 30.471 42.2369C30.8648 42.4953 31.2587 43.0553 31.3462 43.443C31.6963 45.0799 29.4645 46.0706 28.3704 44.7783Z" fill="#D62828"/>
<path d="M33.1845 44.7783C32.5281 44.003 32.7469 42.8399 33.7534 42.2369C35.2413 41.2892 36.948 43.3999 35.8102 44.7783C35.11 45.5968 33.8847 45.5968 33.1845 44.7783Z" fill="#D62828"/>
<path d="M37.9974 44.7783C36.8596 43.3999 38.5663 41.2892 40.0979 42.2369C41.0607 42.8399 41.2795 44.003 40.6231 44.7783C39.9229 45.5968 38.6976 45.5968 37.9974 44.7783Z" fill="#D62828"/>
<path d="M28.3704 49.5687C27.2326 48.1903 28.9393 46.0796 30.471 47.0272C30.8648 47.2857 31.2587 47.8457 31.3462 48.2334C31.6963 49.8702 29.4645 50.861 28.3704 49.5687Z" fill="#D62828"/>
<path d="M33.1845 49.5687C32.5281 48.7933 32.7469 47.6303 33.7534 47.0272C35.2413 46.0796 36.948 48.1903 35.8102 49.5687C35.11 50.3871 33.8847 50.3871 33.1845 49.5687Z" fill="#D62828"/>
<path d="M37.9974 49.5687C36.8596 48.1903 38.5663 46.0796 40.0979 47.0272C41.0607 47.6303 41.2795 48.7933 40.6231 49.5687C39.9229 50.3871 38.6976 50.3871 37.9974 49.5687Z" fill="#D62828"/>
<path d="M28.3704 54.3862C27.2326 53.0078 28.9393 50.897 30.471 51.8447C30.8648 52.1032 31.2587 52.6632 31.3462 53.0508C31.6963 54.6877 29.4645 55.6785 28.3704 54.3862Z" fill="#D62828"/>
<path d="M33.1845 54.3862C32.5281 53.6108 32.7469 52.4478 33.7534 51.8447C35.2413 50.897 36.948 53.0078 35.8102 54.3862C35.11 55.2046 33.8847 55.2046 33.1845 54.3862Z" fill="#D62828"/>
<path d="M37.9974 54.3862C36.8596 53.0078 38.5663 50.897 40.0979 51.8447C41.0607 52.4478 41.2795 53.6108 40.6231 54.3862C39.9229 55.2046 38.6976 55.2046 37.9974 54.3862Z" fill="#D62828"/>
<path d="M42.3704 44.7783C41.2326 43.3999 42.9393 41.2892 44.471 42.2369C44.8648 42.4953 45.2587 43.0553 45.3462 43.443C45.6963 45.0799 43.4645 46.0706 42.3704 44.7783Z" fill="#D62828"/>
<path d="M47.1845 44.7783C46.5281 44.003 46.7469 42.8399 47.7534 42.2369C49.2413 41.2892 50.948 43.3999 49.8102 44.7783C49.11 45.5968 47.8847 45.5968 47.1845 44.7783Z" fill="#D62828"/>
<path d="M51.9974 44.7783C50.8596 43.3999 52.5663 41.2892 54.0979 42.2369C55.0607 42.8399 55.2795 44.003 54.6231 44.7783C53.9229 45.5968 52.6976 45.5968 51.9974 44.7783Z" fill="#D62828"/>
<path d="M42.3704 49.5687C41.2326 48.1903 42.9393 46.0796 44.471 47.0272C44.8648 47.2857 45.2587 47.8457 45.3462 48.2334C45.6963 49.8702 43.4645 50.861 42.3704 49.5687Z" fill="#D62828"/>
<path d="M47.1845 49.5687C46.5281 48.7933 46.7469 47.6303 47.7534 47.0272C49.2413 46.0796 50.948 48.1903 49.8102 49.5687C49.11 50.3871 47.8847 50.3871 47.1845 49.5687Z" fill="#D62828"/>
<path d="M51.9974 49.5687C50.8596 48.1903 52.5663 46.0796 54.0979 47.0272C55.0607 47.6303 55.2795 48.7933 54.6231 49.5687C53.9229 50.3871 52.6976 50.3871 51.9974 49.5687Z" fill="#D62828"/>
<path d="M42.3704 54.3862C41.2326 53.0078 42.9393 50.897 44.471 51.8447C44.8648 52.1032 45.2587 52.6632 45.3462 53.0508C45.6963 54.6877 43.4645 55.6785 42.3704 54.3862Z" fill="#D62828"/>
<path d="M47.1845 54.3862C46.5281 53.6108 46.7469 52.4478 47.7534 51.8447C49.2413 50.897 50.948 53.0078 49.8102 54.3862C49.11 55.2046 47.8847 55.2046 47.1845 54.3862Z" fill="#D62828"/>
<path d="M51.9974 54.3862C50.8596 53.0078 52.5663 50.897 54.0979 51.8447C55.0607 52.4478 55.2795 53.6108 54.6231 54.3862C53.9229 55.2046 52.6976 55.2046 51.9974 54.3862Z" fill="#D62828"/>
</svg>
