<svg width="505" height="479" viewBox="0 0 505 479" fill="none" xmlns="http://www.w3.org/2000/svg">
<circle cx="180" cy="180" r="180" fill="#D62828" fill-opacity="0.3"/>
<circle cx="325" cy="299" r="148.5" stroke="#FCBF49" stroke-width="63"/>
<path d="M44.7013 395.731C44.1206 394.041 46.4603 392.665 47.5611 394.09C47.839 394.471 48.0109 395.133 47.9566 395.527C47.709 397.183 45.2714 397.326 44.7013 395.731Z" fill="#FCBF49"/>
<path d="M49.2081 397.423C48.8661 396.467 49.4797 395.455 50.6339 395.244C52.36 394.88 53.2159 397.455 51.6662 398.346C50.723 398.866 49.5759 398.436 49.2081 397.423Z" fill="#FCBF49"/>
<path d="M53.7145 399.115C53.1338 397.425 55.4735 396.049 56.5743 397.474C57.2637 398.377 57.0597 399.543 56.1727 400.038C55.2295 400.558 54.0824 400.127 53.7145 399.115Z" fill="#FCBF49"/>
<path d="M43.0177 400.216C42.437 398.526 44.7767 397.149 45.8775 398.575C46.1554 398.955 46.3273 399.618 46.273 400.012C46.0254 401.667 43.5878 401.81 43.0177 400.216Z" fill="#FCBF49"/>
<path d="M47.5245 401.908C47.1825 400.951 47.7961 399.939 48.9503 399.729C50.6764 399.364 51.5323 401.94 49.9826 402.831C49.0395 403.351 47.8923 402.92 47.5245 401.908Z" fill="#FCBF49"/>
<path d="M52.0309 403.6C51.4502 401.909 53.7899 400.533 54.8907 401.959C55.5801 402.862 55.3761 404.027 54.4891 404.523C53.5459 405.043 52.3988 404.612 52.0309 403.6Z" fill="#FCBF49"/>
<path d="M41.3244 404.726C40.7437 403.036 43.0833 401.66 44.1842 403.085C44.462 403.465 44.6339 404.128 44.5796 404.522C44.332 406.177 41.8944 406.32 41.3244 404.726Z" fill="#FCBF49"/>
<path d="M45.8311 406.418C45.4891 405.461 46.1027 404.449 47.257 404.239C48.983 403.874 49.8389 406.45 48.2893 407.341C47.3461 407.861 46.199 407.43 45.8311 406.418Z" fill="#FCBF49"/>
<path d="M50.3376 408.11C49.7569 406.42 52.0965 405.043 53.1973 406.469C53.8867 407.372 53.6828 408.538 52.7957 409.033C51.8525 409.553 50.7054 409.122 50.3376 408.11Z" fill="#FCBF49"/>
<path d="M57.8083 400.652C57.2276 398.962 59.5672 397.585 60.668 399.011C60.9459 399.391 61.1178 400.054 61.0635 400.448C60.8159 402.103 58.3783 402.246 57.8083 400.652Z" fill="#FCBF49"/>
<path d="M62.315 402.344C61.973 401.387 62.5866 400.375 63.7409 400.165C65.4669 399.8 66.3228 402.376 64.7731 403.267C63.83 403.787 62.6829 403.356 62.315 402.344Z" fill="#FCBF49"/>
<path d="M66.8215 404.036C66.2407 402.345 68.5804 400.969 69.6812 402.395C70.3706 403.298 70.1666 404.463 69.2796 404.959C68.3364 405.479 67.1893 405.048 66.8215 404.036Z" fill="#FCBF49"/>
<path d="M56.1247 405.137C55.544 403.446 57.8836 402.07 58.9845 403.496C59.2623 403.876 59.4342 404.539 59.3799 404.932C59.1323 406.588 56.6947 406.731 56.1247 405.137Z" fill="#FCBF49"/>
<path d="M60.6314 406.829C60.2894 405.872 60.903 404.86 62.0573 404.649C63.7833 404.285 64.6392 406.861 63.0896 407.751C62.1464 408.272 60.9993 407.841 60.6314 406.829Z" fill="#FCBF49"/>
<path d="M65.1379 408.52C64.5572 406.83 66.8968 405.454 67.9976 406.879C68.687 407.782 68.4831 408.948 67.596 409.443C66.6528 409.963 65.5057 409.533 65.1379 408.52Z" fill="#FCBF49"/>
<path d="M54.4313 409.647C53.8506 407.956 56.1903 406.58 57.2911 408.006C57.569 408.386 57.7409 409.049 57.6865 409.443C57.439 411.098 55.0013 411.241 54.4313 409.647Z" fill="#FCBF49"/>
<path d="M58.9381 411.339C58.596 410.382 59.2097 409.37 60.3639 409.159C62.0899 408.795 62.9459 411.371 61.3962 412.262C60.453 412.782 59.3059 412.351 58.9381 411.339Z" fill="#FCBF49"/>
<path d="M63.4445 413.031C62.8638 411.34 65.2034 409.964 66.3043 411.39C66.9936 412.293 66.7897 413.458 65.9026 413.953C64.9595 414.474 63.8123 414.043 63.4445 413.031Z" fill="#FCBF49"/>
<path d="M39.7804 408.838C39.1997 407.148 41.5394 405.771 42.6402 407.197C42.9181 407.577 43.09 408.24 43.0357 408.634C42.7881 410.289 40.3505 410.432 39.7804 408.838Z" fill="#FCBF49"/>
<path d="M44.2872 410.53C43.9452 409.573 44.5588 408.561 45.713 408.351C47.4391 407.986 48.295 410.562 46.7453 411.453C45.8021 411.973 44.655 411.542 44.2872 410.53Z" fill="#FCBF49"/>
<path d="M48.7936 412.222C48.2129 410.531 50.5526 409.155 51.6534 410.581C52.3428 411.484 52.1388 412.65 51.2518 413.145C50.3086 413.665 49.1615 413.234 48.7936 412.222Z" fill="#FCBF49"/>
<path d="M38.0968 413.323C37.5161 411.632 39.8558 410.256 40.9566 411.682C41.2345 412.062 41.4064 412.725 41.3521 413.118C41.1045 414.774 38.6669 414.917 38.0968 413.323Z" fill="#FCBF49"/>
<path d="M42.6036 415.015C42.2616 414.058 42.8752 413.046 44.0294 412.835C45.7555 412.471 46.6114 415.047 45.0617 415.938C44.1186 416.458 42.9714 416.027 42.6036 415.015Z" fill="#FCBF49"/>
<path d="M47.11 416.707C46.5293 415.016 48.869 413.64 49.9698 415.066C50.6592 415.968 50.4552 417.134 49.5682 417.629C48.625 418.15 47.4779 417.719 47.11 416.707Z" fill="#FCBF49"/>
<path d="M36.4035 417.833C35.8228 416.142 38.1624 414.766 39.2633 416.192C39.5411 416.572 39.713 417.235 39.6587 417.629C39.4111 419.284 36.9735 419.427 36.4035 417.833Z" fill="#FCBF49"/>
<path d="M40.9102 419.525C40.5682 418.568 41.1818 417.556 42.3361 417.345C44.0621 416.981 44.918 419.557 43.3684 420.448C42.4252 420.968 41.2781 420.537 40.9102 419.525Z" fill="#FCBF49"/>
<path d="M45.4167 421.217C44.836 419.526 47.1756 418.15 48.2764 419.576C48.9658 420.479 48.7619 421.644 47.8748 422.14C46.9316 422.66 45.7845 422.229 45.4167 421.217Z" fill="#FCBF49"/>
<path d="M52.8874 413.759C52.3067 412.068 54.6463 410.692 55.7471 412.118C56.025 412.498 56.1969 413.161 56.1426 413.554C55.895 415.21 53.4574 415.353 52.8874 413.759Z" fill="#FCBF49"/>
<path d="M57.3941 415.451C57.0521 414.494 57.6657 413.482 58.82 413.271C60.546 412.907 61.4019 415.483 59.8522 416.373C58.9091 416.894 57.762 416.463 57.3941 415.451Z" fill="#FCBF49"/>
<path d="M61.9006 417.143C61.3198 415.452 63.6595 414.076 64.7603 415.501C65.4497 416.404 65.2457 417.57 64.3587 418.065C63.4155 418.586 62.2684 418.155 61.9006 417.143Z" fill="#FCBF49"/>
<path d="M51.2038 418.243C50.6231 416.553 52.9627 415.177 54.0636 416.602C54.3414 416.983 54.5133 417.645 54.459 418.039C54.2114 419.695 51.7738 419.838 51.2038 418.243Z" fill="#FCBF49"/>
<path d="M55.7105 419.935C55.3685 418.979 55.9821 417.967 57.1364 417.756C58.8624 417.392 59.7183 419.968 58.1687 420.858C57.2255 421.378 56.0784 420.948 55.7105 419.935Z" fill="#FCBF49"/>
<path d="M60.217 421.627C59.6363 419.937 61.9759 418.561 63.0767 419.986C63.7661 420.889 63.5622 422.055 62.6751 422.55C61.7319 423.07 60.5848 422.64 60.217 421.627Z" fill="#FCBF49"/>
<path d="M49.5104 422.754C48.9297 421.063 51.2694 419.687 52.3702 421.112C52.6481 421.493 52.82 422.156 52.7657 422.549C52.5181 424.205 50.0804 424.348 49.5104 422.754Z" fill="#FCBF49"/>
<path d="M54.0172 424.445C53.6751 423.489 54.2888 422.477 55.443 422.266C57.169 421.902 58.025 424.478 56.4753 425.368C55.5321 425.888 54.385 425.458 54.0172 424.445Z" fill="#FCBF49"/>
<path d="M58.5236 426.137C57.9429 424.447 60.2825 423.071 61.3834 424.496C62.0727 425.399 61.8688 426.565 60.9817 427.06C60.0386 427.58 58.8914 427.15 58.5236 426.137Z" fill="#FCBF49"/>
<path d="M34.86 421.945C34.2793 420.254 36.619 418.878 37.7198 420.304C37.9977 420.684 38.1696 421.347 38.1153 421.741C37.8677 423.396 35.43 423.539 34.86 421.945Z" fill="#FCBF49"/>
<path d="M39.3668 423.637C39.0248 422.68 39.6384 421.668 40.7926 421.457C42.5187 421.093 43.3746 423.669 41.8249 424.56C40.8817 425.08 39.7346 424.649 39.3668 423.637Z" fill="#FCBF49"/>
<path d="M43.8732 425.329C43.2925 423.638 45.6322 422.262 46.733 423.688C47.4223 424.591 47.2184 425.756 46.3313 426.251C45.3882 426.772 44.2411 426.341 43.8732 425.329Z" fill="#FCBF49"/>
<path d="M33.1764 426.429C32.5957 424.739 34.9354 423.363 36.0362 424.788C36.3141 425.169 36.486 425.832 36.4317 426.225C36.1841 427.881 33.7465 428.024 33.1764 426.429Z" fill="#FCBF49"/>
<path d="M37.6832 428.121C37.3412 427.165 37.9548 426.153 39.109 425.942C40.8351 425.578 41.691 428.154 40.1413 429.044C39.1981 429.564 38.051 429.134 37.6832 428.121Z" fill="#FCBF49"/>
<path d="M42.1896 429.813C41.6089 428.123 43.9486 426.747 45.0494 428.172C45.7387 429.075 45.5348 430.241 44.6478 430.736C43.7046 431.256 42.5575 430.826 42.1896 429.813Z" fill="#FCBF49"/>
<path d="M31.4831 430.94C30.9024 429.249 33.242 427.873 34.3429 429.299C34.6207 429.679 34.7926 430.342 34.7383 430.735C34.4907 432.391 32.0531 432.534 31.4831 430.94Z" fill="#FCBF49"/>
<path d="M35.9898 432.631C35.6478 431.675 36.2614 430.663 37.4157 430.452C39.1417 430.088 39.9976 432.664 38.448 433.554C37.5048 434.074 36.3577 433.644 35.9898 432.631Z" fill="#FCBF49"/>
<path d="M40.4963 434.323C39.9155 432.633 42.2552 431.257 43.356 432.682C44.0454 433.585 43.8415 434.751 42.9544 435.246C42.0112 435.766 40.8641 435.336 40.4963 434.323Z" fill="#FCBF49"/>
<path d="M47.967 426.865C47.3863 425.175 49.7259 423.799 50.8267 425.224C51.1046 425.605 51.2765 426.268 51.2222 426.661C50.9746 428.317 48.537 428.46 47.967 426.865Z" fill="#FCBF49"/>
<path d="M52.4737 428.557C52.1317 427.601 52.7453 426.589 53.8996 426.378C55.6256 426.014 56.4815 428.59 54.9318 429.48C53.9887 430 52.8415 429.57 52.4737 428.557Z" fill="#FCBF49"/>
<path d="M56.9801 430.249C56.3994 428.559 58.7391 427.183 59.8399 428.608C60.5293 429.511 60.3253 430.677 59.4383 431.172C58.4951 431.692 57.348 431.262 56.9801 430.249Z" fill="#FCBF49"/>
<path d="M46.2834 431.35C45.7027 429.66 48.0423 428.284 49.1431 429.709C49.421 430.09 49.5929 430.752 49.5386 431.146C49.291 432.801 46.8534 432.945 46.2834 431.35Z" fill="#FCBF49"/>
<path d="M50.7901 433.042C50.4481 432.085 51.0617 431.074 52.216 430.863C53.942 430.498 54.7979 433.074 53.2482 433.965C52.3051 434.485 51.1579 434.054 50.7901 433.042Z" fill="#FCBF49"/>
<path d="M55.2966 434.734C54.7158 433.044 57.0555 431.667 58.1563 433.093C58.8457 433.996 58.6417 435.162 57.7547 435.657C56.8115 436.177 55.6644 435.746 55.2966 434.734Z" fill="#FCBF49"/>
<path d="M44.59 435.86C44.0093 434.17 46.349 432.794 47.4498 434.219C47.7277 434.6 47.8996 435.262 47.8452 435.656C47.5977 437.312 45.16 437.455 44.59 435.86Z" fill="#FCBF49"/>
<path d="M49.0967 437.552C48.7547 436.596 49.3684 435.584 50.5226 435.373C52.2486 435.009 53.1046 437.584 51.5549 438.475C50.6117 438.995 49.4646 438.564 49.0967 437.552Z" fill="#FCBF49"/>
<path d="M53.6032 439.244C53.0225 437.554 55.3621 436.178 56.463 437.603C57.1523 438.506 56.9484 439.672 56.0613 440.167C55.1182 440.687 53.971 440.256 53.6032 439.244Z" fill="#FCBF49"/>
<path d="M29.9391 435.052C29.3584 433.361 31.6981 431.985 32.7989 433.41C33.0768 433.791 33.2487 434.454 33.1944 434.847C32.9468 436.503 30.5091 436.646 29.9391 435.052Z" fill="#FCBF49"/>
<path d="M34.4459 436.743C34.1039 435.787 34.7175 434.775 35.8717 434.564C37.5978 434.2 38.4537 436.776 36.904 437.666C35.9608 438.186 34.8137 437.756 34.4459 436.743Z" fill="#FCBF49"/>
<path d="M38.9523 438.435C38.3716 436.745 40.7113 435.369 41.8121 436.794C42.5014 437.697 42.2975 438.863 41.4105 439.358C40.4673 439.878 39.3202 439.448 38.9523 438.435Z" fill="#FCBF49"/>
<path d="M28.2555 439.536C27.6748 437.846 30.0145 436.47 31.1153 437.895C31.3932 438.276 31.5651 438.938 31.5108 439.332C31.2632 440.987 28.8256 441.131 28.2555 439.536Z" fill="#FCBF49"/>
<path d="M32.7623 441.228C32.4203 440.272 33.0339 439.26 34.1881 439.049C35.9142 438.685 36.7701 441.26 35.2204 442.151C34.2772 442.671 33.1301 442.24 32.7623 441.228Z" fill="#FCBF49"/>
<path d="M37.2687 442.92C36.688 441.23 39.0277 439.853 40.1285 441.279C40.8179 442.182 40.6139 443.348 39.7269 443.843C38.7837 444.363 37.6366 443.932 37.2687 442.92Z" fill="#FCBF49"/>
<path d="M26.5622 444.046C25.9815 442.356 28.3211 440.98 29.422 442.405C29.6998 442.786 29.8717 443.448 29.8174 443.842C29.5698 445.498 27.1322 445.641 26.5622 444.046Z" fill="#FCBF49"/>
<path d="M31.0689 445.738C30.7269 444.782 31.3405 443.77 32.4948 443.559C34.2208 443.195 35.0767 445.771 33.5271 446.661C32.5839 447.181 31.4368 446.751 31.0689 445.738Z" fill="#FCBF49"/>
<path d="M35.5754 447.43C34.9947 445.74 37.3343 444.364 38.4351 445.789C39.1245 446.692 38.9206 447.858 38.0335 448.353C37.0903 448.873 35.9432 448.442 35.5754 447.43Z" fill="#FCBF49"/>
<path d="M43.0461 439.972C42.4654 438.282 44.805 436.906 45.9058 438.331C46.1837 438.712 46.3556 439.374 46.3013 439.768C46.0537 441.423 43.6161 441.567 43.0461 439.972Z" fill="#FCBF49"/>
<path d="M47.5528 441.664C47.2108 440.708 47.8244 439.696 48.9787 439.485C50.7047 439.121 51.5606 441.696 50.0109 442.587C49.0678 443.107 47.9206 442.676 47.5528 441.664Z" fill="#FCBF49"/>
<path d="M52.0592 443.356C51.4785 441.666 53.8182 440.289 54.919 441.715C55.6084 442.618 55.4044 443.784 54.5174 444.279C53.5742 444.799 52.4271 444.368 52.0592 443.356Z" fill="#FCBF49"/>
<path d="M41.3625 444.457C40.7818 442.767 43.1214 441.39 44.2222 442.816C44.5001 443.196 44.672 443.859 44.6177 444.253C44.3701 445.908 41.9325 446.051 41.3625 444.457Z" fill="#FCBF49"/>
<path d="M45.8692 446.149C45.5272 445.192 46.1408 444.18 47.2951 443.969C49.0211 443.605 49.877 446.181 48.3273 447.072C47.3842 447.592 46.237 447.161 45.8692 446.149Z" fill="#FCBF49"/>
<path d="M50.3757 447.841C49.7949 446.15 52.1346 444.774 53.2354 446.2C53.9248 447.103 53.7208 448.268 52.8338 448.764C51.8906 449.284 50.7435 448.853 50.3757 447.841Z" fill="#FCBF49"/>
<path d="M39.6691 448.967C39.0884 447.277 41.4281 445.9 42.5289 447.326C42.8068 447.706 42.9787 448.369 42.9243 448.763C42.6768 450.418 40.2391 450.561 39.6691 448.967Z" fill="#FCBF49"/>
<path d="M44.1758 450.659C43.8338 449.702 44.4475 448.69 45.6017 448.48C47.3277 448.115 48.1837 450.691 46.634 451.582C45.6908 452.102 44.5437 451.671 44.1758 450.659Z" fill="#FCBF49"/>
<path d="M48.6823 452.351C48.1016 450.66 50.4412 449.284 51.5421 450.71C52.2314 451.613 52.0275 452.779 51.1404 453.274C50.1973 453.794 49.0501 453.363 48.6823 452.351Z" fill="#FCBF49"/>
<path d="M70.9147 405.573C70.334 403.882 72.6737 402.506 73.7745 403.932C74.0524 404.312 74.2243 404.975 74.1699 405.368C73.9224 407.024 71.4847 407.167 70.9147 405.573Z" fill="#FCBF49"/>
<path d="M75.4215 407.265C75.0794 406.308 75.6931 405.296 76.8473 405.085C78.5733 404.721 79.4293 407.297 77.8796 408.187C76.9364 408.708 75.7893 408.277 75.4215 407.265Z" fill="#FCBF49"/>
<path d="M79.9279 408.956C79.3472 407.266 81.6868 405.89 82.7877 407.315C83.477 408.218 83.2731 409.384 82.386 409.879C81.4429 410.399 80.2957 409.969 79.9279 408.956Z" fill="#FCBF49"/>
<path d="M69.2311 410.057C68.6504 408.367 70.9901 406.991 72.0909 408.416C72.3688 408.797 72.5407 409.459 72.4864 409.853C72.2388 411.509 69.8011 411.652 69.2311 410.057Z" fill="#FCBF49"/>
<path d="M73.7379 411.749C73.3958 410.793 74.0095 409.781 75.1637 409.57C76.8898 409.206 77.7457 411.782 76.196 412.672C75.2528 413.192 74.1057 412.762 73.7379 411.749Z" fill="#FCBF49"/>
<path d="M78.2443 413.441C77.6636 411.751 80.0033 410.375 81.1041 411.8C81.7934 412.703 81.5895 413.869 80.7024 414.364C79.7593 414.884 78.6121 414.453 78.2443 413.441Z" fill="#FCBF49"/>
<path d="M67.5378 414.567C66.9571 412.877 69.2967 411.501 70.3975 412.926C70.6754 413.307 70.8473 413.969 70.793 414.363C70.5454 416.019 68.1078 416.162 67.5378 414.567Z" fill="#FCBF49"/>
<path d="M72.0445 416.259C71.7025 415.303 72.3161 414.291 73.4704 414.08C75.1964 413.716 76.0523 416.292 74.5026 417.182C73.5595 417.702 72.4123 417.272 72.0445 416.259Z" fill="#FCBF49"/>
<path d="M76.5509 417.951C75.9702 416.261 78.3099 414.885 79.4107 416.31C80.1001 417.213 79.8961 418.379 79.0091 418.874C78.0659 419.394 76.9188 418.964 76.5509 417.951Z" fill="#FCBF49"/>
<path d="M84.0216 410.493C83.4409 408.803 85.7806 407.427 86.8814 408.852C87.1593 409.233 87.3312 409.895 87.2769 410.289C87.0293 411.945 84.5917 412.088 84.0216 410.493Z" fill="#FCBF49"/>
<path d="M88.5284 412.185C88.1864 411.229 88.8 410.217 89.9543 410.006C91.6803 409.642 92.5362 412.218 90.9865 413.108C90.0434 413.628 88.8962 413.198 88.5284 412.185Z" fill="#FCBF49"/>
<path d="M93.0348 413.877C92.4541 412.187 94.7938 410.811 95.8946 412.236C96.584 413.139 96.38 414.305 95.493 414.8C94.5498 415.32 93.4027 414.889 93.0348 413.877Z" fill="#FCBF49"/>
<path d="M82.3381 414.978C81.7573 413.288 84.097 411.911 85.1978 413.337C85.4757 413.717 85.6476 414.38 85.5933 414.774C85.3457 416.429 82.9081 416.572 82.3381 414.978Z" fill="#FCBF49"/>
<path d="M86.8448 416.67C86.5028 415.713 87.1164 414.701 88.2707 414.491C89.9967 414.126 90.8526 416.702 89.3029 417.593C88.3598 418.113 87.2126 417.682 86.8448 416.67Z" fill="#FCBF49"/>
<path d="M91.3512 418.362C90.7705 416.671 93.1102 415.295 94.211 416.721C94.9004 417.624 94.6964 418.79 93.8094 419.285C92.8662 419.805 91.7191 419.374 91.3512 418.362Z" fill="#FCBF49"/>
<path d="M80.6447 419.488C80.064 417.798 82.4036 416.422 83.5045 417.847C83.7824 418.227 83.9543 418.89 83.8999 419.284C83.6524 420.939 81.2147 421.082 80.6447 419.488Z" fill="#FCBF49"/>
<path d="M85.1514 421.18C84.8094 420.223 85.4231 419.211 86.5773 419.001C88.3033 418.636 89.1592 421.212 87.6096 422.103C86.6664 422.623 85.5193 422.192 85.1514 421.18Z" fill="#FCBF49"/>
<path d="M89.6579 422.872C89.0772 421.182 91.4168 419.805 92.5177 421.231C93.207 422.134 93.0031 423.3 92.116 423.795C91.1729 424.315 90.0257 423.884 89.6579 422.872Z" fill="#FCBF49"/>
<path d="M65.9943 418.679C65.4136 416.989 67.7533 415.613 68.8541 417.038C69.132 417.419 69.3039 418.081 69.2495 418.475C69.002 420.131 66.5643 420.274 65.9943 418.679Z" fill="#FCBF49"/>
<path d="M70.501 420.371C70.159 419.415 70.7727 418.403 71.9269 418.192C73.6529 417.828 74.5089 420.404 72.9592 421.294C72.016 421.814 70.8689 421.384 70.501 420.371Z" fill="#FCBF49"/>
<path d="M75.0075 422.063C74.4268 420.373 76.7664 418.997 77.8673 420.422C78.5566 421.325 78.3527 422.491 77.4656 422.986C76.5225 423.506 75.3753 423.075 75.0075 422.063Z" fill="#FCBF49"/>
<path d="M64.3107 423.164C63.73 421.474 66.0697 420.098 67.1705 421.523C67.4484 421.903 67.6203 422.566 67.5659 422.96C67.3184 424.615 64.8807 424.758 64.3107 423.164Z" fill="#FCBF49"/>
<path d="M68.8175 424.856C68.4754 423.899 69.0891 422.887 70.2433 422.677C71.9693 422.312 72.8253 424.888 71.2756 425.779C70.3324 426.299 69.1853 425.868 68.8175 424.856Z" fill="#FCBF49"/>
<path d="M73.3239 426.548C72.7432 424.858 75.0828 423.481 76.1837 424.907C76.873 425.81 76.6691 426.976 75.782 427.471C74.8389 427.991 73.6917 427.56 73.3239 426.548Z" fill="#FCBF49"/>
<path d="M62.6174 427.674C62.0366 425.984 64.3763 424.608 65.4771 426.033C65.755 426.414 65.9269 427.076 65.8726 427.47C65.625 429.125 63.1874 429.269 62.6174 427.674Z" fill="#FCBF49"/>
<path d="M67.1241 429.366C66.7821 428.409 67.3957 427.398 68.55 427.187C70.276 426.822 71.1319 429.398 69.5822 430.289C68.6391 430.809 67.4919 430.378 67.1241 429.366Z" fill="#FCBF49"/>
<path d="M71.6305 431.058C71.0498 429.368 73.3895 427.991 74.4903 429.417C75.1797 430.32 74.9757 431.486 74.0887 431.981C73.1455 432.501 71.9984 432.07 71.6305 431.058Z" fill="#FCBF49"/>
<path d="M79.1008 423.6C78.52 421.91 80.8597 420.533 81.9605 421.959C82.2384 422.339 82.4103 423.002 82.356 423.396C82.1084 425.051 79.6708 425.194 79.1008 423.6Z" fill="#FCBF49"/>
<path d="M83.6075 425.292C83.2655 424.335 83.8791 423.323 85.0334 423.113C86.7594 422.748 87.6153 425.324 86.0656 426.215C85.1225 426.735 83.9753 426.304 83.6075 425.292Z" fill="#FCBF49"/>
<path d="M88.1139 426.984C87.5332 425.293 89.8729 423.917 90.9737 425.343C91.6631 426.246 91.4591 427.412 90.5721 427.907C89.6289 428.427 88.4818 427.996 88.1139 426.984Z" fill="#FCBF49"/>
<path d="M77.4172 428.085C76.8364 426.394 79.1761 425.018 80.2769 426.444C80.5548 426.824 80.7267 427.487 80.6724 427.881C80.4248 429.536 77.9872 429.679 77.4172 428.085Z" fill="#FCBF49"/>
<path d="M81.9239 429.777C81.5819 428.82 82.1955 427.808 83.3498 427.597C85.0758 427.233 85.9317 429.809 84.382 430.7C83.4389 431.22 82.2917 430.789 81.9239 429.777Z" fill="#FCBF49"/>
<path d="M86.4303 431.469C85.8496 429.778 88.1893 428.402 89.2901 429.828C89.9795 430.731 89.7755 431.896 88.8885 432.391C87.9453 432.912 86.7982 432.481 86.4303 431.469Z" fill="#FCBF49"/>
<path d="M75.7238 432.595C75.1431 430.904 77.4827 429.528 78.5836 430.954C78.8615 431.334 79.0334 431.997 78.979 432.391C78.7315 434.046 76.2938 434.189 75.7238 432.595Z" fill="#FCBF49"/>
<path d="M80.2305 434.287C79.8885 433.33 80.5022 432.318 81.6564 432.107C83.3824 431.743 84.2383 434.319 82.6887 435.21C81.7455 435.73 80.5984 435.299 80.2305 434.287Z" fill="#FCBF49"/>
<path d="M84.737 435.979C84.1563 434.288 86.4959 432.912 87.5968 434.338C88.2861 435.241 88.0822 436.406 87.1951 436.902C86.252 437.422 85.1048 436.991 84.737 435.979Z" fill="#FCBF49"/>
<path d="M61.0734 431.786C60.4927 430.096 62.8324 428.72 63.9332 430.145C64.2111 430.525 64.383 431.188 64.3286 431.582C64.0811 433.237 61.6434 433.38 61.0734 431.786Z" fill="#FCBF49"/>
<path d="M65.5801 433.478C65.2381 432.521 65.8518 431.509 67.006 431.299C68.732 430.934 69.588 433.51 68.0383 434.401C67.0951 434.921 65.948 434.49 65.5801 433.478Z" fill="#FCBF49"/>
<path d="M70.0866 435.17C69.5059 433.48 71.8455 432.103 72.9464 433.529C73.6357 434.432 73.4318 435.598 72.5447 436.093C71.6016 436.613 70.4544 436.182 70.0866 435.17Z" fill="#FCBF49"/>
<path d="M59.3898 436.271C58.8091 434.58 61.1488 433.204 62.2496 434.63C62.5275 435.01 62.6994 435.673 62.645 436.067C62.3975 437.722 59.9598 437.865 59.3898 436.271Z" fill="#FCBF49"/>
<path d="M63.8966 437.963C63.5545 437.006 64.1682 435.994 65.3224 435.783C67.0484 435.419 67.9044 437.995 66.3547 438.886C65.4115 439.406 64.2644 438.975 63.8966 437.963Z" fill="#FCBF49"/>
<path d="M68.403 439.655C67.8223 437.964 70.1619 436.588 71.2628 438.014C71.9521 438.917 71.7482 440.082 70.8611 440.577C69.918 441.098 68.7708 440.667 68.403 439.655Z" fill="#FCBF49"/>
<path d="M57.6965 440.781C57.1157 439.091 59.4554 437.714 60.5562 439.14C60.8341 439.52 61.006 440.183 60.9517 440.577C60.7041 442.232 58.2665 442.375 57.6965 440.781Z" fill="#FCBF49"/>
<path d="M62.2032 442.473C61.8612 441.516 62.4748 440.504 63.6291 440.293C65.3551 439.929 66.211 442.505 64.6613 443.396C63.7182 443.916 62.571 443.485 62.2032 442.473Z" fill="#FCBF49"/>
<path d="M66.7096 444.165C66.1289 442.474 68.4686 441.098 69.5694 442.524C70.2588 443.427 70.0548 444.592 69.1678 445.088C68.2246 445.608 67.0775 445.177 66.7096 444.165Z" fill="#FCBF49"/>
<path d="M74.1803 436.707C73.5996 435.016 75.9393 433.64 77.0401 435.066C77.318 435.446 77.4899 436.109 77.4356 436.503C77.188 438.158 74.7504 438.301 74.1803 436.707Z" fill="#FCBF49"/>
<path d="M78.6871 438.399C78.3451 437.442 78.9587 436.43 80.1129 436.219C81.839 435.855 82.6949 438.431 81.1452 439.322C80.2021 439.842 79.0549 439.411 78.6871 438.399Z" fill="#FCBF49"/>
<path d="M83.1935 440.091C82.6128 438.4 84.9525 437.024 86.0533 438.45C86.7427 439.353 86.5387 440.518 85.6517 441.013C84.7085 441.534 83.5614 441.103 83.1935 440.091Z" fill="#FCBF49"/>
<path d="M72.4967 441.192C71.916 439.501 74.2557 438.125 75.3565 439.55C75.6344 439.931 75.8063 440.594 75.752 440.987C75.5044 442.643 73.0668 442.786 72.4967 441.192Z" fill="#FCBF49"/>
<path d="M77.0035 442.883C76.6615 441.927 77.2751 440.915 78.4293 440.704C80.1554 440.34 81.0113 442.916 79.4616 443.806C78.5185 444.326 77.3713 443.896 77.0035 442.883Z" fill="#FCBF49"/>
<path d="M81.5099 444.575C80.9292 442.885 83.2689 441.509 84.3697 442.934C85.0591 443.837 84.8551 445.003 83.9681 445.498C83.0249 446.018 81.8778 445.588 81.5099 444.575Z" fill="#FCBF49"/>
<path d="M70.8034 445.702C70.2227 444.011 72.5623 442.635 73.6632 444.061C73.941 444.441 74.1129 445.104 74.0586 445.497C73.811 447.153 71.3734 447.296 70.8034 445.702Z" fill="#FCBF49"/>
<path d="M75.3101 447.394C74.9681 446.437 75.5817 445.425 76.736 445.214C78.462 444.85 79.3179 447.426 77.7683 448.316C76.8251 448.837 75.678 448.406 75.3101 447.394Z" fill="#FCBF49"/>
<path d="M79.8166 449.085C79.2359 447.395 81.5755 446.019 82.6763 447.444C83.3657 448.347 83.1618 449.513 82.2747 450.008C81.3315 450.528 80.1844 450.098 79.8166 449.085Z" fill="#FCBF49"/>
<path d="M56.153 444.893C55.5723 443.203 57.9119 441.826 59.0128 443.252C59.2907 443.632 59.4626 444.295 59.4082 444.689C59.1607 446.344 56.723 446.487 56.153 444.893Z" fill="#FCBF49"/>
<path d="M60.6597 446.585C60.3177 445.628 60.9314 444.616 62.0856 444.405C63.8116 444.041 64.6675 446.617 63.1179 447.508C62.1747 448.028 61.0276 447.597 60.6597 446.585Z" fill="#FCBF49"/>
<path d="M65.1662 448.277C64.5855 446.586 66.9251 445.21 68.026 446.636C68.7153 447.539 68.5114 448.704 67.6243 449.2C66.6812 449.72 65.534 449.289 65.1662 448.277Z" fill="#FCBF49"/>
<path d="M54.4694 449.378C53.8887 447.687 56.2283 446.311 57.3292 447.737C57.6071 448.117 57.779 448.78 57.7246 449.173C57.4771 450.829 55.0394 450.972 54.4694 449.378Z" fill="#FCBF49"/>
<path d="M58.9761 451.07C58.6341 450.113 59.2478 449.101 60.402 448.89C62.128 448.526 62.984 451.102 61.4343 451.992C60.4911 452.513 59.344 452.082 58.9761 451.07Z" fill="#FCBF49"/>
<path d="M63.4826 452.761C62.9019 451.071 65.2415 449.695 66.3424 451.12C67.0317 452.023 66.8278 453.189 65.9407 453.684C64.9976 454.204 63.8504 453.774 63.4826 452.761Z" fill="#FCBF49"/>
<path d="M52.776 453.888C52.1953 452.197 54.535 450.821 55.6358 452.247C55.9137 452.627 56.0856 453.29 56.0313 453.683C55.7837 455.339 53.3461 455.482 52.776 453.888Z" fill="#FCBF49"/>
<path d="M57.2828 455.58C56.9408 454.623 57.5544 453.611 58.7086 453.4C60.4347 453.036 61.2906 455.612 59.7409 456.502C58.7978 457.023 57.6506 456.592 57.2828 455.58Z" fill="#FCBF49"/>
<path d="M61.7892 457.272C61.2085 455.581 63.5482 454.205 64.649 455.63C65.3384 456.533 65.1344 457.699 64.2474 458.194C63.3042 458.715 62.1571 458.284 61.7892 457.272Z" fill="#FCBF49"/>
<path d="M69.2594 449.814C68.6787 448.123 71.0184 446.747 72.1192 448.173C72.3971 448.553 72.569 449.216 72.5147 449.609C72.2671 451.265 69.8295 451.408 69.2594 449.814Z" fill="#FCBF49"/>
<path d="M73.7662 451.505C73.4242 450.549 74.0378 449.537 75.192 449.326C76.9181 448.962 77.774 451.538 76.2243 452.428C75.2812 452.948 74.134 452.518 73.7662 451.505Z" fill="#FCBF49"/>
<path d="M78.2726 453.197C77.6919 451.507 80.0316 450.131 81.1324 451.556C81.8218 452.459 81.6178 453.625 80.7308 454.12C79.7876 454.64 78.6405 454.21 78.2726 453.197Z" fill="#FCBF49"/>
<path d="M67.5758 454.298C66.9951 452.608 69.3348 451.232 70.4356 452.657C70.7135 453.038 70.8854 453.7 70.8311 454.094C70.5835 455.749 68.1459 455.893 67.5758 454.298Z" fill="#FCBF49"/>
<path d="M72.0826 455.99C71.7406 455.034 72.3542 454.022 73.5085 453.811C75.2345 453.447 76.0904 456.022 74.5407 456.913C73.5976 457.433 72.4504 457.002 72.0826 455.99Z" fill="#FCBF49"/>
<path d="M76.589 457.682C76.0083 455.992 78.348 454.616 79.4488 456.041C80.1382 456.944 79.9342 458.11 79.0472 458.605C78.104 459.125 76.9569 458.694 76.589 457.682Z" fill="#FCBF49"/>
<path d="M65.8825 458.808C65.3018 457.118 67.6414 455.742 68.7423 457.167C69.0201 457.548 69.192 458.21 69.1377 458.604C68.8901 460.26 66.4525 460.403 65.8825 458.808Z" fill="#FCBF49"/>
<path d="M70.3892 460.5C70.0472 459.544 70.6608 458.532 71.8151 458.321C73.5411 457.957 74.397 460.533 72.8474 461.423C71.9042 461.943 70.7571 461.513 70.3892 460.5Z" fill="#FCBF49"/>
<path d="M74.8957 462.192C74.315 460.502 76.6546 459.126 77.7554 460.551C78.4448 461.454 78.2409 462.62 77.3538 463.115C76.4106 463.635 75.2635 463.204 74.8957 462.192Z" fill="#FCBF49"/>
</svg>
