<svg width="386" height="386" viewBox="0 0 386 386" fill="none" xmlns="http://www.w3.org/2000/svg">
<path d="M306.458 156.12L285.256 177.322L262.128 154.193L238.999 131.064L215.87 154.193L192.741 177.322L169.612 154.193L146.483 131.064L123.354 154.193L100.225 177.322L79.0237 156.12L57.8223 134.919L28.9111 163.83C2.69837 190.042 0.770963 193.512 7.70963 200.45C14.6483 207.389 18.1176 205.462 36.6208 186.959L57.8223 165.757L79.0237 186.959L100.225 208.16L123.354 185.031L146.483 161.902L169.612 185.031L192.741 208.16L215.87 185.031L238.999 161.902L262.128 185.031L285.256 208.16L306.458 186.959L327.659 165.757L348.861 186.959C367.364 205.462 370.833 207.389 377.772 200.45C384.711 193.512 382.783 190.042 356.571 163.83L327.659 134.919L306.458 156.12Z" fill="#D62828" fill-opacity="0.3"/>
</svg>
