<svg width="36" height="36" viewBox="0 0 36 36" fill="none" xmlns="http://www.w3.org/2000/svg">
<path d="M0 4C0 1.791 1.791 0 4 0H32C34.209 0 36 1.791 36 4V32C36 34.209 34.209 36 32 36H4C1.791 36 0 34.209 0 32V4Z" fill="#FF41C8"/>
<path d="M3 3V33H33V3H3ZM13.093 15.695L15.007 10.812H18.298L14.958 17.863L18.376 25.031H15.046L13.093 20.06L11.15 25.031H7.82L11.238 17.863L7.888 10.812H11.179L13.093 15.695ZM19.069 19.426C19.069 17.694 19.362 16.402 19.948 15.549C20.534 14.696 21.386 14.27 22.507 14.27C23.32 14.27 23.998 14.622 24.538 15.325V10.032H27.321V25.032H24.811L24.684 23.958C24.118 24.805 23.388 25.228 22.496 25.228C21.39 25.228 20.545 24.805 19.962 23.958C19.379 23.111 19.081 21.868 19.068 20.228L19.069 19.426ZM21.843 20.119C21.843 21.161 21.953 21.889 22.175 22.302C22.397 22.715 22.771 22.922 23.298 22.922C23.845 22.922 24.258 22.678 24.538 22.19V17.366C24.265 16.845 23.854 16.585 23.308 16.585C22.8 16.585 22.429 16.79 22.195 17.2C21.961 17.61 21.843 18.34 21.843 19.388V20.119Z" fill="#16020B"/>
</svg>
