<svg width="34" height="38" viewBox="0 0 34 38" fill="none" xmlns="http://www.w3.org/2000/svg">
<path d="M34 0H0L3 34L17 38L31 34L34 0Z" fill="#0277BD"/>
<path d="M17 3V35L28.4453 31.79L31 3H17Z" fill="#039BE5"/>
<path d="M26 8H17V11.9819H21.8462L21.5495 15.9638H17V19.9457H21.3516L21.0549 24.4253L17 25.819V30L24.8132 27.4118L25.5055 15.9638L26 8Z" fill="white"/>
<path d="M17 8V11.9819H8.29348L8 8H17ZM12.5 15.9638L12.6957 19.9457H17V15.9638H12.5ZM12.8913 21.9367H8.97826L9.27174 27.4118L17 30V25.819L12.9891 24.4253L12.8913 21.9367Z" fill="#EEEEEE"/>
</svg>
