<svg width="28" height="42" viewBox="0 0 28 42" fill="none" xmlns="http://www.w3.org/2000/svg">
<path d="M15 14H7C3.134 14 0 10.866 0 7C0 3.134 3.134 0 7 0H15V14Z" fill="#E64A19"/>
<path d="M14 28H7C3.134 28 0 24.866 0 21C0 17.134 3.134 14 7 14H14V28Z" fill="#7C4DFF"/>
<path d="M7 42C3.134 42 0 38.866 0 35C0 31.134 3.134 28 7 28H14V35C14 38.866 10.866 42 7 42Z" fill="#66BB6A"/>
<path d="M21 14H14V0H21C24.866 0 28 3.134 28 7C28 10.866 24.866 14 21 14Z" fill="#FF7043"/>
<path d="M21 28C24.866 28 28 24.866 28 21C28 17.134 24.866 14 21 14C17.134 14 14 17.134 14 21C14 24.866 17.134 28 21 28Z" fill="#29B6F6"/>
</svg>
