<svg width="48" height="48" viewBox="0 0 48 48" fill="none" xmlns="http://www.w3.org/2000/svg">
<path d="M41 5H7L10 39L24 43L38 39L41 5Z" fill="#E65100"/>
<path d="M24 8V39.9L35.2 36.7L37.7 8H24Z" fill="#FF6D00"/>
<path d="M24 25V21H32.6L31.9 32.5L24 35.1V30.9L28.1 29.5L28.4 25H24ZM32.9 17L33.2 13H24V17H32.9Z" fill="white"/>
<path d="M23.9999 30.9V35.1L16.0999 32.5L15.6999 27H19.6999L19.8999 29.5L23.9999 30.9ZM19.0999 17H23.9999V13H14.8999L15.5999 25H23.9999V21H19.3999L19.0999 17Z" fill="#EEEEEE"/>
</svg>
