<svg width="36" height="36" viewBox="0 0 36 36" fill="none" xmlns="http://www.w3.org/2000/svg">
<path d="M0 36V0H36V36H0Z" fill="#FFD600"/>
<path d="M23.538 26.947C24.23 28.071 24.982 29.148 26.575 29.148C27.913 29.148 28.615 28.483 28.615 27.563C28.615 26.462 27.889 26.071 26.417 25.43L25.61 25.086C23.281 24.098 21.732 22.86 21.732 20.245C21.732 17.835 23.577 16.001 26.46 16.001C28.513 16.001 29.988 16.712 31.052 18.574L28.538 20.181C27.985 19.193 27.387 18.804 26.46 18.804C25.514 18.804 24.915 19.401 24.915 20.181C24.915 21.145 25.515 21.535 26.9 22.132L27.707 22.476C30.452 23.645 32 24.839 32 27.523C32 30.415 29.716 32 26.65 32C23.651 32 21.948 30.495 21 28.632L23.538 26.947ZM11.952 27.029C12.458 27.935 13.227 28.632 14.333 28.632C15.391 28.632 16 28.214 16 26.589V16H19.333V27.101C19.333 30.468 17.38 32 14.528 32C11.951 32 10.091 30.254 9.33301 28.632L11.952 27.029Z" fill="#000001"/>
</svg>
