<svg width="48" height="20" viewBox="0 0 48 20" fill="none" xmlns="http://www.w3.org/2000/svg">
<path d="M17.204 7.12202L12.297 9.83702C12.113 9.93802 12 10.126 12 10.329V15.762C12 15.965 12.113 16.152 12.297 16.254L17.205 18.971C17.388 19.072 17.615 19.072 17.798 18.971L22.705 16.254C22.887 16.152 23 15.965 23 15.762V10.329C23 10.126 22.887 9.93902 22.703 9.83702L17.797 7.12202C17.705 7.07102 17.602 7.04602 17.5 7.04602C17.397 7.04602 17.295 7.07102 17.203 7.12202M42.451 12.013L41.633 12.465C41.602 12.482 41.584 12.513 41.584 12.547V13.453C41.584 13.487 41.603 13.518 41.633 13.535L42.451 13.988C42.482 14.005 42.519 14.005 42.55 13.988L43.368 13.535C43.398 13.518 43.417 13.487 43.417 13.453V12.547C43.417 12.513 43.398 12.482 43.367 12.465L42.549 12.013C42.534 12.004 42.517 12 42.5 12C42.483 12 42.466 12.004 42.451 12.013Z" fill="#388E3C"/>
<path d="M35.751 1.36401L33.362 0.0310115C33.287 -0.0109885 33.195 -0.00998828 33.121 0.0340117C33.047 0.0780117 33.001 0.157011 33.001 0.243011L33 8.29501L30.797 7.07601C30.705 7.02501 30.602 7.00001 30.5 7.00001C30.398 7.00001 30.295 7.02501 30.203 7.07601H30.204L25.297 9.79101C25.113 9.89201 25 10.08 25 10.282V15.715C25 15.918 25.113 16.105 25.297 16.207L30.205 18.924C30.388 19.025 30.615 19.025 30.798 18.924L35.705 16.207C35.887 16.106 36 15.918 36 15.715V1.78801C36 1.61201 35.904 1.45001 35.751 1.36401ZM32.866 14.458L30.636 15.693C30.553 15.739 30.45 15.739 30.367 15.693L28.136 14.458C28.051 14.412 28 14.326 28 14.234V11.764C28 11.672 28.051 11.587 28.135 11.54L30.366 10.306C30.408 10.283 30.453 10.272 30.5 10.272C30.547 10.272 30.593 10.284 30.635 10.306L32.865 11.54C32.949 11.587 33 11.673 33 11.765V14.235C33 14.326 32.949 14.412 32.866 14.458Z" fill="#37474F"/>
<path d="M17.204 7.12202L12 15.762C12 15.965 12.113 16.152 12.297 16.254L17.205 18.971C17.388 19.072 17.615 19.072 17.798 18.971L23 10.329C23 10.126 22.887 9.93902 22.703 9.83702L17.797 7.12202C17.705 7.07102 17.602 7.04602 17.5 7.04602C17.397 7.04602 17.295 7.07102 17.203 7.12202" fill="#2E7D32"/>
<path d="M17.204 7.12202L12.297 9.83702C12.113 9.93802 12 10.126 12 10.329L17.204 18.971C17.387 19.072 17.614 19.072 17.797 18.971L22.704 16.254C22.887 16.152 23 15.965 23 15.762L17.797 7.12202C17.705 7.07102 17.602 7.04602 17.5 7.04602C17.397 7.04602 17.295 7.07102 17.203 7.12202" fill="#4CAF50"/>
<path d="M47.703 9.791L42.797 7.076C42.705 7.025 42.602 7 42.5 7C42.398 7 42.295 7.025 42.203 7.076L37.297 9.791C37.114 9.892 37 10.084 37 10.294V15.705C37 15.914 37.114 16.107 37.297 16.208L42.205 18.925C42.389 19.027 42.614 19.027 42.798 18.925L45.061 17.672C45.268 17.557 45.267 17.26 45.059 17.146L40.135 14.459C40.052 14.412 40 14.325 40 14.231V11.765C40 11.673 40.05 11.588 40.13 11.544L42.365 10.308H42.364C42.406 10.285 42.452 10.274 42.499 10.274C42.546 10.274 42.592 10.286 42.634 10.308L44.869 11.545C44.949 11.589 44.999 11.674 44.999 11.766V13.778C44.999 13.864 45.045 13.944 45.12 13.987C45.195 14.029 45.287 14.029 45.362 13.986L47.76 12.593C47.908 12.507 48 12.348 48 12.176V10.296C48 10.085 47.886 9.892 47.703 9.791ZM10.703 9.791L5.797 7.076C5.705 7.025 5.602 7 5.5 7C5.398 7 5.295 7.025 5.203 7.076L0.297 9.791C0.114 9.892 0 10.084 0 10.294V17.759C0 17.845 0.046 17.925 0.121 17.968C0.196 18.01 0.288 18.01 0.363 17.967L2.761 16.574C2.909 16.488 3 16.329 3 16.157V11.764C3 11.672 3.05 11.587 3.13 11.543L5.365 10.307C5.407 10.284 5.453 10.273 5.5 10.273C5.547 10.273 5.593 10.285 5.635 10.307L7.87 11.544C7.95 11.588 8 11.673 8 11.765V16.158C8 16.33 8.091 16.489 8.24 16.575L10.638 17.968C10.713 18.011 10.805 18.011 10.88 17.969C10.954 17.925 11 17.845 11 17.759V10.295C11 10.085 10.886 9.892 10.703 9.791Z" fill="#37474F"/>
</svg>
