<svg width="54" height="48" viewBox="0 0 54 48" fill="none" xmlns="http://www.w3.org/2000/svg">
<path d="M27 29C29.7614 29 32 26.7614 32 24C32 21.2386 29.7614 19 27 19C24.2386 19 22 21.2386 22 24C22 26.7614 24.2386 29 27 29Z" fill="#39C1D7"/>
<path d="M54 23.9996C54 20.2601 49.4598 17.0235 42.416 15.0973C44.2267 8.07453 43.6692 2.55215 40.4334 0.6782C39.157 -0.0612253 37.6085 -0.196172 35.8315 0.275446C33.1539 0.986351 30.0857 3.06481 27 6.11781C23.9143 3.06481 20.8461 0.987047 18.1685 0.275446C16.3915 -0.196867 14.843 -0.0612253 13.5666 0.6782C10.3308 2.55215 9.7733 8.07384 11.5841 15.0973C4.54021 17.0235 0 20.2601 0 23.9996C0 27.7392 4.54021 30.9758 11.5841 32.9027C9.7733 39.9255 10.3308 45.4478 13.5666 47.3218C14.3465 47.7732 15.2273 48.0007 16.2007 48C16.82 48 17.4771 47.9082 18.1685 47.7245C20.8461 47.0129 23.9143 44.9352 27 41.8822C30.0857 44.9352 33.1539 47.0129 35.8315 47.7245C36.5229 47.9082 37.1801 48 37.7993 48C38.7727 48 39.6535 47.7739 40.4334 47.3218C43.6692 45.4478 44.226 39.9255 42.416 32.9027C49.4598 30.9758 54 27.7392 54 23.9996ZM36.3757 2.29061C36.8841 2.15635 37.3554 2.08819 37.7895 2.08819C38.3926 2.08819 38.9228 2.21896 39.3723 2.47981C41.5407 3.73607 41.9832 8.33678 40.3682 14.5909C38.1429 14.0943 35.715 13.7207 33.135 13.4898C31.6209 11.3244 30.0457 9.35305 28.4587 7.62657C31.2765 4.82538 34.041 2.91108 36.3757 2.29061ZM34.5425 28.3812C33.7156 29.8184 32.8453 31.195 31.9526 32.5124C30.3676 32.63 28.7154 32.6947 27 32.6947C25.2846 32.6947 23.6324 32.63 22.0481 32.5124C21.1554 31.195 20.2851 29.8184 19.4582 28.3812C18.6033 26.8954 17.8361 25.4319 17.1489 24.0003C17.8361 22.5688 18.6033 21.1052 19.4582 19.6187C20.2858 18.1809 21.1554 16.8043 22.0488 15.4869C23.6331 15.3693 25.2846 15.3046 27 15.3046C28.7154 15.3046 30.3669 15.3693 31.9519 15.4869C32.8446 16.8043 33.7149 18.1816 34.5425 19.6187C35.3974 21.1045 36.1646 22.5681 36.8518 24.0003C36.1646 25.4319 35.3974 26.8954 34.5425 28.3812ZM37.9711 26.4656C38.7012 28.1774 39.3043 29.8253 39.7924 31.3918C38.1969 31.7445 36.4745 32.0387 34.635 32.2564C35.2255 31.3341 35.8076 30.3908 36.3694 29.4149C36.9381 28.4278 37.469 27.4436 37.9711 26.4656ZM27 38.8556C25.8527 37.5973 24.7075 36.204 23.5889 34.6966C24.7054 34.7502 25.8415 34.7815 27 34.7815C28.1585 34.7815 29.2946 34.7502 30.4111 34.6966C29.2925 36.2033 28.1473 37.5966 27 38.8556ZM19.3643 32.2564C17.5255 32.0387 15.8024 31.7445 14.2069 31.3918C14.695 29.8253 15.2981 28.1767 16.0282 26.4656C16.5303 27.4436 17.0619 28.4278 17.6299 29.4149C18.1924 30.3915 18.7738 31.3348 19.3643 32.2564ZM16.0289 21.5344C15.2988 19.8226 14.695 18.174 14.2076 16.6068C15.8031 16.2541 17.5262 15.9599 19.3657 15.7422C18.7745 16.6645 18.1931 17.6085 17.6313 18.5844C17.0619 19.5721 16.531 20.5564 16.0289 21.5344ZM27 9.14437C28.1473 10.4027 29.2925 11.796 30.4111 13.3034C29.2946 13.2491 28.1585 13.2178 27 13.2178C25.8415 13.2178 24.7054 13.2491 23.5889 13.3027C24.7075 11.796 25.8527 10.4027 27 9.14437ZM36.3694 18.5851C35.8076 17.6085 35.2255 16.6652 34.635 15.7429C36.4745 15.9606 38.1969 16.2548 39.7931 16.6075C39.305 18.1747 38.7019 19.8226 37.9718 21.5351C37.469 20.5564 36.9381 19.5721 36.3694 18.5851ZM14.6277 2.47981C15.0779 2.21896 15.6067 2.08819 16.2105 2.08819C16.6439 2.08819 17.1166 2.15635 17.6243 2.29061C19.959 2.91108 22.7235 4.82468 25.5413 7.62587C23.9543 9.35236 22.3791 11.3244 20.865 13.4891C18.285 13.72 15.8564 14.0936 13.6318 14.5902C12.0168 8.33608 12.4593 3.73537 14.6277 2.47981ZM2.1039 23.9996C2.1039 21.4983 5.89161 18.8244 12.157 17.1125C12.8366 19.3099 13.7286 21.6242 14.8262 23.9996C13.7286 26.3751 12.8366 28.6894 12.157 30.8868C5.89161 29.1749 2.1039 26.501 2.1039 23.9996ZM17.6243 45.7087C16.409 46.0301 15.4012 45.9668 14.6277 45.5202C12.4593 44.2639 12.0175 39.6632 13.6318 33.4091C15.8564 33.9057 18.285 34.2793 20.8643 34.5102C22.3784 36.6756 23.9536 38.6469 25.5406 40.3741C22.7235 43.1746 19.959 45.0882 17.6243 45.7087ZM39.3723 45.5202C38.5988 45.9682 37.5917 46.0308 36.3757 45.7087C34.041 45.0882 31.2765 43.1746 28.4587 40.3734C30.0457 38.6469 31.6209 36.6749 33.135 34.5095C35.715 34.2786 38.1429 33.905 40.3675 33.4084C41.9832 39.6632 41.5407 44.2639 39.3723 45.5202ZM41.843 30.8868C41.1634 28.6894 40.2714 26.3751 39.1738 23.9996C40.2714 21.6242 41.1634 19.3092 41.843 17.1125C48.1084 18.8244 51.8961 21.4983 51.8961 23.9996C51.8961 26.501 48.1084 29.1749 41.843 30.8868Z" fill="#39C1D7"/>
</svg>
