<svg width="36" height="36" viewBox="0 0 36 36" fill="none" xmlns="http://www.w3.org/2000/svg">
<path d="M36 0H0V36H36V0Z" fill="#1976D2"/>
<path d="M21.4901 16H8.22705V19.264H12.984V34H16.7531V19.264H21.4901V16Z" fill="white"/>
<path d="M33.194 20.084C33.194 20.084 31.407 18.892 29.387 18.892C27.367 18.892 26.64 19.852 26.64 20.878C26.64 23.526 34.021 23.261 34.021 28.59C34.021 36.799 22.767 33.158 22.767 33.158V29.22C22.767 29.22 24.919 30.842 27.5 30.842C30.081 30.842 29.983 29.154 29.983 28.922C29.983 26.473 22.668 26.473 22.668 21.044C22.668 13.663 33.326 16.575 33.326 16.575L33.194 20.084Z" fill="white"/>
</svg>
