<svg width="44" height="44" viewBox="0 0 44 44" fill="none" xmlns="http://www.w3.org/2000/svg">
<path d="M22 0C9.86843 0 0 9.86939 0 22C0 34.1306 9.86843 44 22 44C34.1316 44 44 34.1306 44 22C44 9.86939 34.1316 0 22 0ZM22 4.78261C26.0748 4.78261 29.811 6.20304 32.758 8.56565C31.8436 9.174 31.2783 10.23 31.2783 11.3826C31.2783 12.913 32.1391 14.2522 33.0956 15.7826C33.8609 17.0261 34.6261 18.6522 34.6261 20.9478C34.6261 22.5739 34.1478 24.5826 33.1913 27.0696L31.2783 33.3826L24.487 13.1043C25.6348 13.0087 26.687 12.913 26.687 12.913C27.6435 12.8174 27.5478 11.3826 26.5913 11.3826C26.5913 11.3826 26.5913 11.3826 26.4957 11.3826C26.4957 11.3826 23.4348 11.6696 21.4261 11.6696C19.6087 11.6696 16.4522 11.3826 16.4522 11.3826C16.4522 11.3826 16.4522 11.3826 16.3565 11.3826C15.4 11.3826 15.3043 12.913 16.2609 12.913C16.2609 12.913 17.2174 13.0087 18.2696 13.1043L21.2348 21.1391L17.1217 33.4783L10.2348 13.0087C11.3826 12.913 12.4348 12.8174 12.4348 12.8174C13.3913 12.7217 13.2957 11.287 12.3391 11.287C12.3391 11.287 12.3391 11.287 12.2435 11.287C12.2435 11.287 10.185 11.4802 8.33609 11.549C11.4811 7.44174 16.4216 4.78261 22 4.78261ZM4.78261 22C4.78261 20.2783 5.04183 18.6187 5.51148 17.051L12.6127 36.4263C7.90183 33.3549 4.78261 28.0481 4.78261 22ZM16.9094 38.4522L22 23.5304L27.4378 38.3288C25.7276 38.897 23.9025 39.2174 22 39.2174C20.2276 39.2174 18.5183 38.9486 16.9094 38.4522ZM31.856 36.1087L36.9217 21.4261C37.6736 19.513 38.0791 17.8468 38.2513 16.3527C38.8663 18.1232 39.2174 20.0181 39.2174 22C39.2174 27.8453 36.3038 32.9971 31.856 36.1087Z" fill="#38A3C5"/>
</svg>
