<svg width="25" height="36" viewBox="0 0 25 36" fill="none" xmlns="http://www.w3.org/2000/svg">
<path d="M12.1616 5.52798C8.50342 5.52798 5.52798 8.50342 5.52798 12.1616C5.52798 12.7724 6.02274 13.2672 6.63358 13.2672C7.24442 13.2672 7.73917 12.7724 7.73917 12.1616C7.73917 9.72234 9.72372 7.73917 12.1616 7.73917C12.7724 7.73917 13.2672 7.24442 13.2672 6.63358C13.2672 6.02274 12.7724 5.52798 12.1616 5.52798ZM6.63772 31.7285C6.63772 31.9462 6.70199 32.1583 6.82291 32.3394L8.51655 34.885C8.72177 35.1932 9.06727 35.3784 9.43696 35.3784H14.8855C15.2558 35.3784 15.6013 35.1932 15.8059 34.885L17.4995 32.3394C17.6198 32.1583 17.684 31.9455 17.6847 31.7285L17.6882 28.7448H6.63496L6.63772 31.7285ZM12.1616 0C5.09404 0 0 5.73321 0 12.1616C0 15.2275 1.13669 18.0247 3.00999 20.1619C4.15981 21.4741 5.96331 24.225 6.6322 26.5302V26.5343H9.94898V26.526C9.94829 26.1964 9.89923 25.8689 9.80042 25.5538C9.41415 24.3231 8.22356 21.0782 5.50449 17.9756C4.08518 16.3566 3.32646 14.303 3.32024 12.1616C3.30642 7.07305 7.44343 3.31679 12.1616 3.31679C17.0386 3.31679 21.0063 7.2845 21.0063 12.1616C21.0063 14.3016 20.2296 16.3663 18.8193 17.9756C16.1168 21.0582 14.9207 24.2962 14.5282 25.5393C14.4269 25.8589 14.3752 26.1921 14.3748 26.5274V26.5343H17.6916V26.5309C18.3605 24.225 20.164 21.4741 21.3138 20.1626C23.1864 18.0247 24.3231 15.2275 24.3231 12.1616C24.3231 5.44506 18.8781 0 12.1616 0Z" fill="#fff"/>
</svg>
