<svg width="37" height="25" viewBox="0 0 37 25" fill="none" xmlns="http://www.w3.org/2000/svg">
<path d="M36.0153 11.8747C32.6922 5.16462 26.1134 0.624634 18.5806 0.624634C11.0477 0.624634 4.46708 5.16779 1.14583 11.8754C1.00565 12.1623 0.932617 12.4794 0.932617 12.8009C0.932617 13.1225 1.00565 13.4395 1.14583 13.7265C4.46892 20.4366 11.0477 24.9766 18.5806 24.9766C26.1134 24.9766 32.694 20.4334 36.0153 13.7258C36.1555 13.4389 36.2285 13.1218 36.2285 12.8003C36.2285 12.4787 36.1555 12.1617 36.0153 11.8747ZM18.5806 21.9326C16.8353 21.9326 15.1293 21.397 13.6782 20.3936C12.2271 19.3901 11.0961 17.9639 10.4283 16.2953C9.76039 14.6266 9.58564 12.7905 9.92612 11.019C10.2666 9.24761 11.107 7.62045 12.3411 6.34332C13.5751 5.06619 15.1474 4.19645 16.8591 3.84409C18.5708 3.49173 20.345 3.67258 21.9573 4.36375C23.5697 5.05493 24.9478 6.2254 25.9174 7.72714C26.887 9.22889 27.4045 10.9945 27.4045 12.8006C27.4051 14 27.1773 15.1877 26.734 16.2959C26.2908 17.4041 25.6408 18.4111 24.8213 19.2592C24.0018 20.1073 23.0288 20.7799 21.958 21.2386C20.8872 21.6973 19.7395 21.9332 18.5806 21.9326ZM18.5806 6.71262C18.0555 6.72021 17.5338 6.80105 17.0296 6.95296C17.4452 7.53746 17.6446 8.25673 17.5918 8.98035C17.5389 9.70397 17.2371 10.384 16.7413 10.8972C16.2455 11.4103 15.5884 11.7225 14.8892 11.7773C14.1899 11.832 13.4949 11.6256 12.9301 11.1955C12.6085 12.4217 12.6666 13.7215 13.0961 14.9117C13.5257 16.102 14.3051 17.1229 15.3246 17.8308C16.3442 18.5386 17.5526 18.8977 18.7797 18.8576C20.0068 18.8175 21.1909 18.3802 22.1652 17.6071C23.1396 16.8341 23.8552 15.7643 24.2113 14.5483C24.5673 13.3324 24.546 12.0315 24.1503 10.8287C23.7545 9.62595 23.0043 8.5819 22.0051 7.84353C21.006 7.10515 19.8083 6.70962 18.5806 6.71262Z" fill="black"/>
</svg>
