<svg width="27" height="27" viewBox="0 0 27 27" fill="none" xmlns="http://www.w3.org/2000/svg">
<path d="M10.6662 6.00002C10.6662 11.3334 10.2662 12 7.73291 12C4.93291 12 4.93291 12.2667 9.06625 16.2667L13.3329 20.6667L17.5996 16.2667C21.7329 12.2667 21.7329 12 18.9329 12C16.3996 12 15.9996 11.3334 15.9996 6.00002C15.9996 0.933353 15.5996 1.90735e-05 13.3329 1.90735e-05C11.0662 1.90735e-05 10.6662 0.933353 10.6662 6.00002Z" fill="white"/>
<path d="M0 25.3334C0 26.1334 5.33333 26.6667 13.3333 26.6667C21.3333 26.6667 26.6667 26.1334 26.6667 25.3334C26.6667 24.5334 21.3333 24 13.3333 24C5.33333 24 0 24.5334 0 25.3334Z" fill="white"/>
</svg>
