<svg width="24" height="23" viewBox="0 0 24 23" fill="none" xmlns="http://www.w3.org/2000/svg">
<path d="M8.02742 18.356C8.02742 18.4503 7.91613 18.5257 7.77581 18.5257C7.61613 18.5399 7.50484 18.4645 7.50484 18.356C7.50484 18.2618 7.61613 18.1863 7.75645 18.1863C7.90161 18.1722 8.02742 18.2476 8.02742 18.356ZM6.52258 18.1439C6.48871 18.2382 6.58548 18.3466 6.73065 18.3749C6.85645 18.422 7.00161 18.3749 7.03064 18.2806C7.05968 18.1863 6.96774 18.0779 6.82258 18.0355C6.69677 18.0025 6.55645 18.0496 6.52258 18.1439ZM8.66129 18.0638C8.52097 18.0968 8.42419 18.1863 8.43871 18.2948C8.45323 18.389 8.57903 18.4503 8.72419 18.4173C8.86452 18.3843 8.96129 18.2948 8.94677 18.2005C8.93226 18.1109 8.80161 18.0496 8.66129 18.0638ZM11.8452 0C5.13387 0 0 4.96377 0 11.502C0 16.7297 3.37742 21.2032 8.20161 22.7777C8.82097 22.8861 9.03871 22.5137 9.03871 22.2073C9.03871 21.9151 9.02419 20.3029 9.02419 19.313C9.02419 19.313 5.6371 20.0201 4.92581 17.9082C4.92581 17.9082 4.37419 16.5365 3.58065 16.1829C3.58065 16.1829 2.47258 15.4428 3.65806 15.457C3.65806 15.457 4.8629 15.5512 5.52581 16.6732C6.58548 18.4927 8.36129 17.9695 9.05323 17.6584C9.16452 16.9041 9.47903 16.3809 9.82742 16.0698C7.12258 15.7775 4.39355 15.3957 4.39355 10.8609C4.39355 9.56456 4.76129 8.91404 5.53548 8.08439C5.40968 7.77798 4.99839 6.51465 5.66129 4.88363C6.67258 4.57722 9 6.15639 9 6.15639C9.96774 5.89241 11.0081 5.75571 12.0387 5.75571C13.0694 5.75571 14.1097 5.89241 15.0774 6.15639C15.0774 6.15639 17.4048 4.57251 18.4161 4.88363C19.079 6.51936 18.6677 7.77798 18.5419 8.08439C19.3161 8.91875 19.7903 9.56927 19.7903 10.8609C19.7903 15.4098 16.9403 15.7728 14.2355 16.0698C14.6806 16.4422 15.0581 17.1493 15.0581 18.257C15.0581 19.8456 15.0435 21.8113 15.0435 22.1979C15.0435 22.5043 15.2661 22.8767 15.8806 22.7683C20.7194 21.2032 24 16.7297 24 11.502C24 4.96377 18.5565 0 11.8452 0ZM4.70323 16.2583C4.64032 16.3055 4.65484 16.4139 4.7371 16.5035C4.81452 16.5789 4.92581 16.6119 4.98871 16.5506C5.05161 16.5035 5.0371 16.395 4.95484 16.3055C4.87742 16.2301 4.76613 16.1971 4.70323 16.2583ZM4.18064 15.8765C4.14677 15.9378 4.19516 16.0132 4.29194 16.0604C4.36935 16.1075 4.46613 16.0933 4.5 16.0274C4.53387 15.9661 4.48548 15.8906 4.38871 15.8435C4.29194 15.8152 4.21452 15.8294 4.18064 15.8765ZM5.74839 17.5547C5.67097 17.6159 5.7 17.7574 5.81129 17.8469C5.92258 17.9554 6.0629 17.9695 6.12581 17.8941C6.18871 17.8328 6.15968 17.6914 6.0629 17.6018C5.95645 17.4934 5.81129 17.4792 5.74839 17.5547ZM5.19677 16.8617C5.11935 16.9089 5.11935 17.0314 5.19677 17.1398C5.27419 17.2483 5.40484 17.2954 5.46774 17.2483C5.54516 17.187 5.54516 17.0644 5.46774 16.956C5.4 16.8476 5.27419 16.8004 5.19677 16.8617Z" fill="black"/>
</svg>
