<svg width="102" height="94" viewBox="0 0 102 94" fill="none" xmlns="http://www.w3.org/2000/svg">
<g filter="url(#filter0_d_186_4755)">
<ellipse cx="51" cy="43" rx="47" ry="43" fill="#FFFCF8"/>
</g>
<path d="M35.5355 31.6175C35.1773 31.6175 34.8264 31.4721 34.5719 31.2195C34.3173 30.965 34.1719 30.6141 34.1719 30.2539C34.1719 29.8957 34.3173 29.545 34.5719 29.2903C34.8264 29.0357 35.1773 28.8903 35.5355 28.8903C35.8937 28.8903 36.2464 29.0357 36.4991 29.2903C36.7537 29.5448 36.8991 29.8957 36.8991 30.2539C36.8991 30.6139 36.7537 30.9648 36.4991 31.2195C36.2464 31.4721 35.8937 31.6175 35.5355 31.6175Z" fill="#D62828"/>
<path d="M50.9992 31.6175C50.6412 31.6175 50.2903 31.4721 50.0357 31.2195C49.7812 30.965 49.6357 30.6141 49.6357 30.2539C49.6357 29.8957 49.7812 29.545 50.0357 29.2903C50.2903 29.0357 50.6412 28.8903 50.9992 28.8903C51.3576 28.8903 51.7101 29.0357 51.9648 29.2903C52.2177 29.5448 52.3628 29.8957 52.3628 30.2539C52.3628 30.6139 52.2176 30.9648 51.9648 31.2195C51.7101 31.4721 51.3574 31.6175 50.9992 31.6175Z" fill="#D62828"/>
<path d="M66.4632 31.6175C66.1049 31.6175 65.7542 31.4721 65.4994 31.2195C65.2451 30.965 65.0996 30.6141 65.0996 30.2539C65.0996 29.8957 65.2451 29.545 65.4994 29.2903C65.754 29.0357 66.1049 28.8903 66.4632 28.8903C66.8232 28.8903 67.1742 29.0357 67.4269 29.2903C67.6812 29.5448 67.8269 29.8957 67.8269 30.2539C67.8269 30.6139 67.6812 30.9648 67.4269 31.2195C67.1743 31.4721 66.8234 31.6175 66.4632 31.6175Z" fill="#D62828"/>
<path d="M43.6722 24.7449C43.314 24.7449 42.9631 24.5994 42.7086 24.3465C42.454 24.0921 42.3086 23.7412 42.3086 23.3812C42.3086 23.023 42.454 22.6703 42.7086 22.4176C42.9613 22.163 43.314 22.0176 43.6722 22.0176C44.0322 22.0176 44.3831 22.163 44.6359 22.4176C44.8904 22.6703 45.0359 23.023 45.0359 23.3812C45.0359 23.7412 44.8904 24.0921 44.6359 24.3465C44.3831 24.5994 44.0322 24.7449 43.6722 24.7449Z" fill="#D62828"/>
<path d="M58.3265 24.7449C57.9682 24.7449 57.6174 24.5994 57.3627 24.3465C57.1083 24.0921 56.9629 23.7412 56.9629 23.3812C56.9629 23.023 57.1083 22.6703 57.3627 22.4176C57.6173 22.163 57.9682 22.0176 58.3265 22.0176C58.6865 22.0176 59.0374 22.163 59.2902 22.4176C59.5445 22.6703 59.6902 23.023 59.6902 23.3812C59.6902 23.7412 59.5445 24.0921 59.2902 24.3465C59.0376 24.5994 58.6867 24.7449 58.3265 24.7449Z" fill="#D62828"/>
<path d="M77.6738 53.5913C78.172 52.7915 78.4618 51.8495 78.4618 50.8398C78.4618 49.0427 77.5491 47.4549 76.1635 46.5147C77.1127 45.4938 77.6953 44.1275 77.6953 42.6265C77.6953 41.3156 77.2509 40.1073 76.5058 39.142C79.1347 38.1035 81 35.5391 81 32.5455C81 27.4582 77.786 22.7282 71.9505 19.2267C66.3331 15.8562 58.8925 14 51.0002 14C43.1075 14 35.6669 15.8562 30.0495 19.2267C24.2138 22.7282 21 27.4582 21 32.5455C21 35.5391 22.8655 38.1035 25.4942 39.142C24.7491 40.1073 24.3047 41.3156 24.3047 42.6265C24.3047 44.1275 24.888 45.4933 25.8373 46.5142C24.4511 47.4544 23.5382 49.0424 23.5382 50.8398C23.5382 51.8495 23.828 52.7915 24.3264 53.5913C22.6978 54.012 21 55.1267 21 58.0824C21 61.6871 23.6095 64.6196 26.8171 64.6196H75.1829C78.3905 64.6196 81 61.6871 81 58.0824C81 55.1265 79.3024 54.012 77.6738 53.5913ZM27.032 42.6265C27.032 40.978 28.3735 39.6367 30.0222 39.6367H71.9778C73.6264 39.6367 74.9678 40.978 74.9678 42.6265C74.9678 42.9376 74.9196 43.2376 74.8313 43.5198C73.7293 43.3711 73.0844 42.8924 72.3053 42.3116C71.2309 41.5109 69.8936 40.514 67.3924 40.514C64.8911 40.514 63.5542 41.5105 62.4796 42.3116C61.5375 43.0138 60.7933 43.5685 59.1967 43.5685C57.6002 43.5685 56.856 43.0138 55.9138 42.3116C54.8393 41.5107 53.5022 40.514 51.0009 40.514C48.4996 40.514 47.1625 41.5105 46.088 42.3116C45.1458 43.0138 44.4018 43.5685 42.8051 43.5685C41.2082 43.5685 40.464 43.0138 39.5216 42.3116C38.4471 41.5107 37.1098 40.514 34.6084 40.514C32.1069 40.514 30.7696 41.5105 29.6951 42.3115C28.916 42.8922 28.2707 43.3711 27.1682 43.5196C27.08 43.2378 27.032 42.9376 27.032 42.6265ZM72.3687 45.5882C72.2406 45.6051 72.1105 45.6167 71.978 45.6167H62.3585C63.0575 45.2804 63.6127 44.8689 64.11 44.4984C65.0522 43.7962 65.7962 43.2415 67.3929 43.2415C68.9895 43.2415 69.7336 43.7962 70.6758 44.4984C71.1589 44.8587 71.6969 45.2576 72.3687 45.5882ZM56.0356 45.6169H45.9669C46.6658 45.2805 47.2211 44.8691 47.7184 44.4985C48.6605 43.7964 49.4045 43.2416 51.0013 43.2416C52.5978 43.2416 53.3422 43.7964 54.2844 44.4985C54.7813 44.8689 55.3367 45.2805 56.0356 45.6169ZM39.6438 45.6169H30.0224C29.8891 45.6169 29.7587 45.6053 29.6302 45.5882C30.3029 45.2576 30.8418 44.8589 31.3255 44.4985C32.2678 43.7964 33.012 43.2416 34.6089 43.2416C36.2058 43.2416 36.9502 43.7964 37.8924 44.4985C38.3895 44.8689 38.9449 45.2805 39.6438 45.6169ZM28.7616 48.3442H73.2384C74.6147 48.3442 75.7346 49.4636 75.7346 50.84C75.7346 52.2164 74.6149 53.3362 73.2384 53.3362H28.7616C27.3853 53.3362 26.2655 52.2165 26.2655 50.84C26.2655 49.4636 27.3853 48.3442 28.7616 48.3442ZM23.7273 32.5455C23.7273 28.4538 26.4709 24.5544 31.4525 21.5653C36.6524 18.4455 43.5944 16.7273 51 16.7273C58.4053 16.7273 65.3473 18.4455 70.5473 21.5653C75.5291 24.5542 78.2727 28.4538 78.2727 32.5455C78.2727 34.9516 76.3151 36.9095 73.9091 36.9095H28.0909C25.6847 36.9095 23.7273 34.9518 23.7273 32.5455ZM75.1829 61.8924H26.8171C25.1133 61.8924 23.7273 60.1833 23.7273 58.0824C23.7273 56.8627 23.9424 56.0633 26.8171 56.0633H75.1829C78.0576 56.0633 78.2727 56.8627 78.2727 58.0824C78.2727 60.1833 76.8866 61.8924 75.1829 61.8924Z" fill="#D62828"/>
<defs>
<filter id="filter0_d_186_4755" x="0" y="0" width="102" height="94" filterUnits="userSpaceOnUse" color-interpolation-filters="sRGB">
<feFlood flood-opacity="0" result="BackgroundImageFix"/>
<feColorMatrix in="SourceAlpha" type="matrix" values="0 0 0 0 0 0 0 0 0 0 0 0 0 0 0 0 0 0 127 0" result="hardAlpha"/>
<feOffset dy="4"/>
<feGaussianBlur stdDeviation="2"/>
<feComposite in2="hardAlpha" operator="out"/>
<feColorMatrix type="matrix" values="0 0 0 0 0 0 0 0 0 0 0 0 0 0 0 0 0 0 0.25 0"/>
<feBlend mode="normal" in2="BackgroundImageFix" result="effect1_dropShadow_186_4755"/>
<feBlend mode="normal" in="SourceGraphic" in2="effect1_dropShadow_186_4755" result="shape"/>
</filter>
</defs>
</svg>

