<svg width="286" height="395" viewBox="0 0 286 395" fill="none" xmlns="http://www.w3.org/2000/svg">
<path fill-rule="evenodd" clip-rule="evenodd" d="M46.0053 0.755941C47.1063 0.348941 74.6053 1.03894 46.0053 0.755941C40.7483 2.69494 41.0304 -5.1631 40.7124 148.017C40.5044 248.266 40.7474 292.936 41.5404 299.945C47.6334 353.832 77.5253 384.551 132.196 393.109C139.689 394.282 149.145 394.801 163.007 394.801C234.729 394.801 272.06 368.29 283.094 309.517C285.241 298.078 286.273 227.033 284.559 208.606C281.662 177.456 273.098 155.567 257.301 138.937C243.157 124.047 226.969 115.972 201.007 110.856C188.119 108.316 151.689 108.297 139.195 110.823C116.231 115.466 98.7613 125.317 88.5073 139.404L84.0073 145.586L83.5073 76.2559C83.0403 11.5499 82.8863 6.74289 81.1993 4.16789C80.2043 2.65089 78.6293 1.09589 77.6993 0.71289C-39.1757 0.98889 76.7683 0.32989 77.6993 0.71289C-75.4757 0.70689 46.0053 0.755941 46.0053 0.755941ZM175.778 149.567C213.162 152.397 230.824 164.741 238.69 193.536C240.97 201.882 241.007 202.816 240.988 252.017C240.969 300.697 240.909 302.228 238.732 310.017C233.688 328.06 225.093 339.274 211.179 345.966C200.305 351.196 188.874 353.48 170.007 354.189C119.806 356.078 95.8163 343.135 86.2833 309.017C84.1123 301.245 84.0473 299.634 84.0283 252.517C84.0043 197.547 84.2473 195.262 91.6863 180.399C101.158 161.475 118.912 151.771 148.007 149.617C154.057 149.169 159.682 148.74 160.507 148.664C161.332 148.588 168.204 148.994 175.778 149.567Z" fill="black"/>
</svg>
