<svg width="24" height="27" viewBox="0 0 24 27" fill="none" xmlns="http://www.w3.org/2000/svg">
<path d="M13.4271 0.5C14.2196 0.500118 15.0105 0.572483 15.7899 0.716196C15.8274 0.723165 15.8473 0.737671 15.86 0.751327C15.875 0.767482 15.8879 0.791722 15.8929 0.821753C15.898 0.851809 15.8937 0.879219 15.8847 0.899759C15.877 0.917243 15.8629 0.937338 15.8303 0.955887L16.0776 1.39045L15.8303 0.95589C12.3786 2.9202 10.254 6.56932 10.254 10.5374C10.254 17.426 16.5207 22.6584 23.3444 21.3588C23.3809 21.3519 23.4047 21.3579 23.4222 21.3663C23.4426 21.3762 23.4636 21.3944 23.4793 21.4204C23.4949 21.4464 23.5008 21.473 23.4999 21.4949C23.4991 21.5133 23.4935 21.5373 23.469 21.5675L23.8573 21.8826L23.469 21.5675C21.0557 24.5409 17.4145 26.3544 13.4272 26.3544C6.28247 26.3544 0.5 20.5629 0.5 13.4272C0.5 6.28247 6.29138 0.5 13.4271 0.5ZM13.4271 0.5L13.4272 0L13.4271 0.5Z" fill="white" stroke="black"/>
</svg>
