<svg width="23" height="21" viewBox="0 0 23 21" fill="none" xmlns="http://www.w3.org/2000/svg">
<path d="M5.1483 20.5094H0.379911V6.81631H5.1483V20.5094ZM2.76154 4.94845C1.23676 4.94845 0 3.82224 0 2.46255C1.09137e-08 1.80944 0.290947 1.18308 0.808836 0.721265C1.32673 0.259447 2.02913 0 2.76154 0C3.49395 0 4.19635 0.259447 4.71424 0.721265C5.23213 1.18308 5.52308 1.80944 5.52308 2.46255C5.52308 3.82224 4.2858 4.94845 2.76154 4.94845ZM22.9949 20.5094H18.2367V13.8437C18.2367 12.2551 18.2008 10.2178 15.7576 10.2178C13.2784 10.2178 12.8985 11.9438 12.8985 13.7292V20.5094H8.13522V6.81631H12.7085V8.68417H12.7753C13.4119 7.60832 14.9669 6.47295 17.287 6.47295C22.1129 6.47295 23 9.30679 23 12.9876V20.5094H22.9949Z" fill="black"/>
</svg>
